<?xml version="1.0" encoding="UTF-8"?>
<svg id="Layer_1" data-name="Layer 1" xmlns="http://www.w3.org/2000/svg" viewBox="0 0 500 500">
  <path d="m251.7020657612,405.025691093c4.1557510935.3305781801,8.3814993767-.2590254975,12.62349658-.3707338328,19.085302093-.4989064644,39.5981161016-7.5735523289,56.4411389924-16.164708245,17.4285344249-8.8898105917,33.3670739729-21.3461754206,46.1361647073-36.1810806475,3.3504603494-3.8925137994,3.6130754463-4.5580255403,1.4271529556-9.1850192517-1.6227621958-3.4348877288-3.5600690275-6.7181507762-5.7644181288-9.8109496759-4.8162852566-6.757516717-10.9923107908-12.6502271307-18.0075128881-17.0876181983-7.5905670304-4.8013046615-16.3387798884-8.0035384836-25.2373491028-9.2291713252-4.2507558261-.5854876035-10.0660505446-1.5256276343-14.0832430988.0887588295-3.9064893066,1.5698754304-7.5006355984,4.5265567184-11.3391618218,6.3880272787-16.3252590638,7.9168855525-34.6581093168,11.23949061-52.7018532288,9.2530541269-8.9732328833-.9878817037-17.8501927088-3.3268647156-26.1977105439-6.7556979866-7.8455243151-3.2226466777-14.7340255166-9.6473357323-23.3317623651-9.4691001535-17.3977595922.360706885-33.8518134848,7.6710219197-45.690133043,20.4609084003-3.039289937,3.2835980767-5.7430480466,6.8735086411-8.0446035015,10.7114365979-1.3837786287,2.3075141899-4.9745028357,7.1933180228-4.7114091255,9.8915481493.3061689038,3.1399183754,4.9064918911,6.7387072158,7.0499613855,9.0246598783,3.0782490566,3.2828562261,6.3038033099,6.4236121747,9.6586190399,9.4230814883,13.5732567373,12.1355982206,29.0541462841,21.808994445,46.0008846688,28.4889758136,16.9869299333,6.6958234675,37.3618793918,11.8615442668,55.7717385186,10.5236287539Zm-70.9012302084-178.7005994535c-.130206738,4.07658846.2951727641,8.1072061161.9646210991,12.1042251213,5.5856919714,33.3498438955,35.2412876113,58.6550842895,68.9946742788,59.2509338702,28.3330675434.5001747896,54.7679309587-17.1826707922,65.9799970288-43.0020854137,11.6941492783-26.9296059443,5.1458583489-59.480883612-16.1000954546-79.735282355-20.8907270404-19.9157798601-52.2071585611-25.1535439206-78.5096136174-13.2653408952-25.1174564807,11.3526108545-41.1814644953,37.2769375031-41.3295833346,64.6475496724Zm255.561641655,24.297280864c-.1341552974-3.037519068-.0533175174-7.2810956951-.3731268991-11.5248398369-1.1999313094-15.9260477419-4.1982998125-31.5713409442-9.306395575-46.7149158292-2.1715162315-6.4377910926-4.3667238195-16.2527730852-9.1422790874-21.2919724686-3.6062552073-3.8054301163-10.1859910281-2.8338332289-12.5261705732,1.9246953722-2.9862835182,6.072298075,3.7128423808,15.3822952148,5.7694914294,21.0417175592,2.6755438578,7.3627231869,4.8258096605,14.9146421964,6.4359125355,22.5810933595,6.7626618096,32.1994490587,4.0768756279,66.1928842078-7.9206187359,96.8480875763-23.968114593,61.2416300113-83.5864798645,105.3446695118-149.7115445731,107.8493962964-63.9491691657,2.4223095808-124.3762113702-31.1886896411-155.6964598317-87.1196268961-32.3607177974-57.7889617998-27.0997230456-130.8931411656,12.222945141-183.9687554562,38.6264713529-52.1359349251,105.3809962584-77.5161680346,168.9053004313-64.8960157648,5.8218995816,1.1566168092,14.7095564136,3.5988067884,15.9652940294-5.0212633514,1.0405052318-7.142567069-5.7831319073-8.8377733648-11.1861491619-10.034557792-14.9415402617-3.3095807941-30.6098308313-4.5223269736-45.8764212899-3.7614156442-32.3177622571,1.610766951-63.9362585729,11.2384675741-91.2139120814,28.8038734267-54.7649396258,35.2658105584-87.908812304,97.6766688383-85.6494166949,162.8518298055,2.2582768506,65.1427588494,39.7312244325,126.084178692,97.2614120068,156.998335766,56.7941282385,30.5186310742,127.0928681072,29.0000869162,182.3033009574-4.464217341,55.4640978791-33.6181066289,90.1728923403-95.2191752,89.7388379729-160.1014487815Z" style="fill: #fff;"/>
</svg>