<?xml version="1.0" encoding="UTF-8"?>
<svg id="Layer_1" data-name="Layer 1" xmlns="http://www.w3.org/2000/svg" viewBox="0 0 951.24 632.16">
  <path d="m341.21,363.82c32.6-57.35,94.78-101.38,160.61-97.14-48.56,52.8-76.87,121.08-79.93,192.74-1.08,27.64.6,58.5-17.76,79.2-11.42,12.88-28.88,19.12-46.04,20.43-17.16,1.31-34.32-1.79-51.26-4.88l-4.11,1.26c-1.56-65.94,5.89-134.27,38.49-191.62Z" style="fill: #87ff63;"/>
  <path d="m501.91,268.06c-48.68,23.43-90.18,62.57-115.66,110.3-5.51,10.32-10.2,21.27-12.24,32.84-2.05,11.58-.62,22.6,3.34,33.6,3.62,10.05,8.48,19.92,9.59,30.68,1.17,11.34-3,21.94-10.51,30.36-9.19,10.3-21.53,16.68-33.82,22.5-13.64,6.46-27.91,12.96-37.57,25.02-1.17,1.46-3.37-.44-2.2-1.9,16.81-20.98,45.58-24.93,65.54-41.83,9.31-7.89,16.3-18.63,15.86-31.21-.39-11.01-5.39-21.18-9.14-31.33-3.94-10.66-5.9-21.37-4.49-32.73,1.44-11.62,5.72-22.78,10.94-33.19,11.77-23.49,27.89-45.05,46.35-63.69,21.21-21.43,45.94-39.07,73.1-52.16,1.68-.81,2.61,1.95.94,2.75h0Z" style="fill: #fff;"/>
  <path d="m393.71,362.41c-15.41-11.27-20.39-32.05-11.76-49.08.85-1.67,3.48-.42,2.63,1.25-8.07,15.85-3.39,35.22,11.03,45.63,1.52,1.1-.39,3.29-1.9,2.2Z" style="fill: #fff;"/>
  <path d="m374.84,439.95c18.7-2.73,35.68-12.41,47.56-27.11,1.18-1.46,3.38.44,2.2,1.9-12.39,15.27-30.08,25.31-49.55,28.11-1.86.27-2.06-2.64-.21-2.9h0Z" style="fill: #fff;"/>
  <path d="m450.52,299.62c4.97,5.51,12.38,8.15,19.72,7.03,1.85-.29,2.05,2.61.21,2.9-8.11,1.2-16.28-1.69-21.83-7.73-.58-.54-.65-1.43-.15-2.05.53-.6,1.44-.67,2.05-.15h0Z" style="fill: #fff;"/>
  <path d="m632.79,447.58c-1.15.21-2.3.43-3.46.66-15.46,2.95-30.65,7.15-45.42,12.56-1.15.4-2.31.82-3.44,1.25-35.46,13.41-68.12,33.29-96.33,58.62-11.21,10.09-21.64,21.02-31.2,32.7-13.2,16.12-26.22,34.65-43.47,45.17-1.79,1.12-3.64,2.12-5.55,3.01l-99.34-41.2c-.18-.21-.37-.39-.55-.6l-4.04-1.46c.45-.64.93-1.29,1.38-1.92.26-.37.54-.73.8-1.1.18-.24.36-.49.51-.72.06-.08.12-.16.17-.22.15-.23.31-.43.45-.64,2.68-3.64,5.39-7.27,8.13-10.89t.04-.04c20.95-27.52,44.38-53.53,71.02-75.15.8-.65,1.61-1.32,2.46-1.96,12.06-9.68,24.89-18.36,38.36-25.95,7.39-4.13,14.99-7.89,22.76-11.25,20.1-8.66,41.43-14.1,63.21-16.12,43.43-4.03,87.67,5.87,120.98,33.15.85.7,1.68,1.39,2.52,2.11Z" style="fill: #87ff63;"/>
  <path d="m632.04,448.75c-52.97-10.6-109.68-4.34-158.76,18.43-10.61,4.92-20.95,10.84-29.55,18.85-8.61,8.01-14.1,17.68-17.57,28.84-3.17,10.21-5.22,21.01-10.82,30.27-5.89,9.76-15.61,15.71-26.67,17.91-13.54,2.69-27.23.35-40.55-2.4-14.78-3.05-30.09-6.46-45.06-2.65-1.81.46-2.43-2.38-.61-2.84,26.05-6.63,51.4,7.54,77.51,6.06,12.18-.69,24.23-5.06,31.46-15.37,6.32-9.02,8.45-20.16,11.57-30.52,3.27-10.88,8.16-20.62,16.12-28.84,8.15-8.41,18.28-14.74,28.72-19.92,23.54-11.66,49.39-19.18,75.35-22.95,29.84-4.34,60.2-3.53,89.77,2.37,1.83.37.91,3.13-.9,2.76h0Z" style="fill: #fff;"/>
  <path d="m488.85,458.94c-5.52-18.28,3.01-37.86,20.16-46.27,1.68-.82,3.03,1.76,1.35,2.58-15.99,7.8-23.91,26.08-18.66,43.08.55,1.79-2.3,2.39-2.84.61h0Z" style="fill: #fff;"/>
  <path d="m427.1,509.48c16.58,9.08,35.96,11.57,54.3,6.99,1.82-.46,2.43,2.39.61,2.84-19.09,4.73-39.26,2.1-56.49-7.39-1.64-.91-.06-3.34,1.58-2.44Z" style="fill: #fff;"/>
  <path d="m572.01,443.01c.65,7.39,4.98,13.96,11.51,17.48,1.65.88.07,3.32-1.58,2.44-7.2-3.92-11.98-11.16-12.78-19.31-.14-.78.35-1.54,1.11-1.73.78-.17,1.55.33,1.73,1.11h0Z" style="fill: #fff;"/>
  <path d="m443.56,515.56c-13.91-67.27-31.3-89.69-31.3-89.69l-6.64-5.15-7.99-6.21.04-.8-1.89-.64-.45-.35-.73-.56-.12.13-.25.26-36.15-12.29-45.87-15.58-21.24-27.61c-7.01-9.11-17.89-14.42-29.39-14.33l-67.83.5c-9.17.07-17.99,3.56-24.71,9.8l-44.58,41.35-69.47,33.18-.12-.12-.73.52-10.73,5.13.44,2.31-6.64,4.79s-17.39,20.87-31.3,83.46C2.37,539.59.63,573.76,0,615.85c-.13,8.87,6.96,16.17,15.83,16.31.08,0,.16,0,.23,0h371.05s46.31,0,46.31,0c8.88,0,16.07-7.2,16.06-16.08,0-.07,0-.14,0-.21-.61-45.81-2.36-83.04-5.93-100.31Z" style="fill: #3f3d56;"/>
  <path d="m491.17,58.66c-30.06-.01-54.44,24.35-54.45,54.41-.01,30.06,24.35,54.44,54.41,54.45h405.68c30.06-.01,54.42-24.39,54.41-54.45-.01-30.04-24.36-54.4-54.41-54.41h-405.64Z" style="fill: #e5e5e5;"/>
  <path d="m491.17,69.68c-23.98,0-43.42,19.44-43.42,43.41s19.44,43.42,43.41,43.42h405.64c23.98,0,43.41-19.44,43.41-43.42,0-23.98-19.44-43.41-43.41-43.41h-405.64Z" style="fill: #fff;"/>
  <circle id="e096411a-cdc3-4e6d-bbd4-4630e1fee17e" cx="238.32" cy="228.39" r="88.86" style="fill: #9e616a;"/>
  <path d="m215.59,312.9c-.38-.84-.76-1.67-1.14-2.52.15,0,.29.03.43.03l.7,2.49Z" style="fill: #2f2e41;"/>
  <path d="m146.99,143.57c4.49-3.59,9.75-6.88,15.49-6.7,5.75.19,11.57,5.38,10.38,11,21.79-38.57,68.12-55.95,109.9-41.21,14.28,5.04,28.29,15.12,31.57,29.9.84,3.8,1.02,7.96,3.39,11.04,2.99,3.89,8.7,4.76,13.41,3.4.05-.01.09-.03.14-.04,2.19-.75,4.58.42,5.33,2.62.37,1.09.28,2.29-.26,3.31l-4.04,7.54c5.09,1.14,10.39,1.02,15.43-.33,2.24-.59,4.53.75,5.12,2.99.32,1.22.07,2.52-.67,3.53-13.32,18.29-35.59,30.11-58.3,29.97-16.15-.1-32.46-5.66-48.17-1.95-22.49,5.31-36.41,27.85-31.1,50.34.68,2.9,1.68,5.71,2.96,8.4-4.83-5.28-14.16-4.03-19.1,1.15-4.94,5.18-6.22,12.9-5.72,20.04.76,10.92,5.04,21.2,9.55,31.21-37.8-1.19-73.55-27.71-85.59-63.57-12.09-36.02.58-78.95,30.28-102.64Z" style="fill: #2f2e41;"/>
  <polygon points="87.46 495.25 112.39 630.86 127.34 632.16 87.46 495.25" style="isolation: isolate; opacity: .2;"/>
  <polygon points="362.01 485.03 337.08 630.76 322.13 632.16 362.01 485.03" style="isolation: isolate; opacity: .2;"/>
  <path d="m168.25,97.93c-4.78,2-9.77-.19-11.86-5.2-2.12-5.08-.14-10.25,4.72-12.27,4.86-2.03,9.75.16,11.91,5.33,2.13,5.09.16,10.08-4.77,12.14Zm-9.15-27.48l-3.8,1.59c-1.97.81-4.23-.02-5.21-1.91l-.19-.37c-4.09-7.37-4.56-16.33-1.38-26.62,2.94-9.23,4.16-15.72,1.7-21.6-2.84-6.8-8.9-8.93-16.63-5.84-3,1.25-3.95,1.23-6.31,3.57-1.04,1.04-2.45,1.62-3.92,1.59-1.42-.02-2.77-.61-3.75-1.64-1.93-2.04-1.94-5.23-.04-7.3,3.97-4.15,8.75-7.43,14.05-9.64,16.61-6.93,24.97,3.3,28.79,12.46,3.74,8.96,1.64,17.28-1.74,28.04-2.83,8.95-2.67,15.58.55,22.17.95,2.04.07,4.47-1.97,5.42-.05.02-.1.05-.15.07h0Z" style="fill: #87ff63;"/>
  <path d="m580.77,139.05h-80.71c-1.07,0-1.95-.86-1.96-1.93,0-1.07.86-1.95,1.93-1.96,0,0,.02,0,.03,0h80.71c1.07,0,1.94.88,1.93,1.96,0,1.06-.87,1.92-1.93,1.93Z" style="fill: #87ff63;"/>
  <path d="m683.15,139.7h-80.71c-1.07,0-1.95-.86-1.96-1.93,0-1.07.86-1.95,1.93-1.96,0,0,.02,0,.03,0h80.71c1.07,0,1.95.86,1.96,1.93,0,1.07-.86,1.95-1.93,1.96,0,0-.02,0-.03,0h0Z" style="fill: #87ff63;"/>
  <path d="m785.53,140.35h-80.71c-1.07,0-1.94-.88-1.93-1.96,0-1.06.87-1.92,1.93-1.93h80.71c1.07,0,1.95.86,1.96,1.93,0,1.07-.86,1.95-1.93,1.96,0,0-.02,0-.03,0h0Z" style="fill: #87ff63;"/>
  <path d="m887.91,141h-80.71c-1.07,0-1.94-.88-1.93-1.96,0-1.06.87-1.92,1.93-1.93h80.71c1.07,0,1.94.88,1.93,1.96,0,1.06-.87,1.92-1.93,1.93h0Z" style="fill: #87ff63;"/>
  <circle cx="540.24" cy="106.16" r="15" style="fill: #87ff63;"/>
  <circle cx="643.24" cy="106.16" r="15" style="fill: #87ff63;"/>
  <circle cx="746.24" cy="106.16" r="15" style="fill: #87ff63;"/>
  <circle cx="849.24" cy="106.16" r="15" style="fill: #87ff63;"/>
</svg>