<?xml version="1.0" encoding="UTF-8"?>
<svg id="Layer_1" data-name="Layer 1" xmlns="http://www.w3.org/2000/svg" viewBox="0 0 760.67 554.13">
  <g>
    <path d="m688,450.75c-.35-1.08-3.04-.61-3.3-1.58-.26-.97,2.32-1.78,4.29-4.5.36-.49,2.6-3.58,1.74-4.89-1.63-2.47-12.99,3.68-15.71.23-.6-.76-.84-2.06-2.63-4.47-.71-.96-1.16-1.43-1.71-1.41-.77.02-1.05.98-2.26,2.73-1.82,2.62-2.47,2.29-3.67,4.44-.89,1.59-.99,2.61-1.64,2.67-.91.08-1.28-1.9-2.39-1.98-1.13-.08-2.26,1.88-2.82,3.41-1.05,2.88-.4,5.07-.26,7.26.16,2.38-.21,5.86-2.8,10.34l-24.39,38.86c5.24-7.92,20.11-29.53,26.1-37.45,1.73-2.29,3.59-4.58,6.45-5.02,2.75-.42,6.11.95,10.78.87.55,0,2.07-.05,2.44-.86.31-.67-.45-1.25-.18-1.87.37-.84,2.04-.48,4.31-1.04,1.6-.39,2.69-1.04,3.62-1.6.28-.17,4.48-2.71,4.01-4.16h0Z" style="fill: #78ff63;"/>
    <path d="m624.12,459.83c-.63-.14-1.17,1.32-1.72,1.16-.55-.15-.2-1.65-.97-3.41-.14-.32-1.01-2.31-1.9-2.26-1.68.09-1.94,7.44-4.42,7.78-.54.08-1.25-.18-2.95,0-.68.07-1.04.16-1.19.43-.21.38.18.8.69,1.9.76,1.65.41,1.88,1.12,3.08.53.9,1,1.24.84,1.57-.22.47-1.3.08-1.66.6-.36.53.27,1.65.86,2.37,1.11,1.35,2.37,1.66,3.49,2.22,1.21.61,2.82,1.8,4.27,4.36l12.04,23.18c-2.38-4.86-8.69-18.39-10.85-23.62-.62-1.51-1.21-3.08-.6-4.61.59-1.47,2.23-2.72,3.54-5.04.15-.27.57-1.03.28-1.44-.24-.34-.74-.14-.97-.45-.31-.42.35-1.14.73-2.41.27-.9.26-1.62.26-2.24,0-.19-.04-2.98-.88-3.17h0Z" style="fill: #78ff63;"/>
    <path d="m636.12,465.48l.38-3.49.23-.22c1.07-1.01,1.75-2.09,2-3.2.04-.18.07-.35.1-.53.13-.72.28-1.61.97-2.54.39-.52,1.41-1.68,2.46-1.28.28.11.48.29.61.49.03-.03.07-.07.1-.1.46-.44.77-.6,1.08-.76.24-.12.48-.24.89-.57.18-.14.33-.27.45-.38.37-.33.84-.72,1.49-.56.69.19.92.84,1.08,1.28.28.77.37,1.31.42,1.66.02.13.04.27.06.32.15.38,2.04.48,2.75.52,1.6.09,2.98.16,3.31,1.25.24.78-.26,1.64-1.52,2.6-.39.3-.79.51-1.13.66.21.2.38.47.39.84h0c.02.87-.87,1.54-2.66,1.99-.44.11-1.04.26-1.82.23-.37-.02-.69-.07-.97-.13-.04.16-.12.32-.25.47-.4.46-1.04.57-1.91.31-.96-.27-1.72-.63-2.39-.95-.59-.28-1.09-.52-1.52-.58-.79-.11-1.52.38-2.41,1.03l-2.21,1.65h0Z" style="fill: #78ff63;"/>
    <path d="m642.42,445.59l-3.47.52-.27-.17c-1.25-.78-2.46-1.16-3.6-1.12-.18,0-.36.02-.54.04-.73.06-1.63.14-2.7-.3-.6-.24-1.99-.94-1.86-2.06.03-.3.16-.53.32-.71-.04-.02-.08-.05-.13-.07-.54-.33-.78-.6-1.01-.85-.18-.2-.36-.4-.78-.72-.19-.14-.35-.25-.48-.34-.41-.27-.91-.63-.92-1.3,0-.71.58-1.11.96-1.37.68-.47,1.17-.68,1.5-.83.12-.05.25-.11.3-.14.33-.24-.06-2.09-.2-2.79-.32-1.57-.6-2.92.37-3.52.7-.43,1.65-.16,2.9.81.39.3.69.63.93.92.14-.25.36-.48.71-.59h0c.84-.24,1.71.45,2.6,2.07.22.4.52.94.68,1.71.08.36.1.69.12.97.16,0,.34.03.52.12.54.27.82.86.79,1.77-.02,1-.18,1.83-.32,2.56-.12.64-.22,1.19-.18,1.61.09.79.75,1.38,1.6,2.07l2.16,1.71h0,0Z" style="fill: #78ff63;"/>
    <path d="m642.89,435.15l.38-3.49.23-.22c1.07-1.01,1.75-2.09,2-3.2.04-.18.07-.35.1-.53.13-.72.28-1.61.97-2.54.39-.52,1.41-1.68,2.46-1.28.28.11.48.29.61.49.03-.03.07-.07.1-.1.46-.44.77-.6,1.08-.76.24-.12.48-.24.89-.57.18-.14.33-.27.45-.38.37-.33.84-.72,1.49-.56.69.19.92.84,1.08,1.28.28.77.37,1.31.42,1.66.02.13.04.27.06.32.15.38,2.04.48,2.75.52,1.6.09,2.98.16,3.31,1.25.24.78-.26,1.64-1.52,2.6-.39.3-.79.51-1.13.66.21.2.38.47.39.84h0c.02.87-.87,1.54-2.66,1.99-.44.11-1.04.26-1.82.23-.37-.02-.69-.07-.97-.13-.04.16-.12.32-.25.47-.4.46-1.04.57-1.91.31-.96-.27-1.72-.63-2.39-.95-.59-.28-1.09-.52-1.52-.58-.79-.11-1.52.38-2.41,1.03l-2.21,1.65h0Z" style="fill: #78ff63;"/>
    <path d="m631.62,502.08l-.61-.61v-.86s0,.86,0,.86l-.85-.09c0-.08,0-.27,0-.56-.03-1.61-.13-6.5.55-14.01.48-5.25,1.27-10.57,2.36-15.83,1.09-5.27,2.23-9.18,3.14-12.33.69-2.38,1.38-4.63,2.06-6.82,1.81-5.86,3.52-11.4,4.57-17.72.24-1.41.73-4.35-.28-7.81-.58-2.01-1.58-3.9-2.97-5.62l1.34-1.09c1.53,1.9,2.64,3.99,3.29,6.23,1.12,3.84.58,7.04.32,8.58-1.08,6.43-2.8,12.02-4.63,17.94-.67,2.19-1.37,4.43-2.05,6.8-.9,3.12-2.03,7-3.11,12.2-1.08,5.2-1.86,10.45-2.33,15.63-.67,7.42-.57,12.24-.54,13.82.02.85.02,1.02-.25,1.29h0s0,0,0,0Z" style="fill: #78ff63;"/>
    <path d="m635.89,422.66c-.07-.02-.14-.03-.21-.05-1.42-.4-2.55-1.55-3.38-3.43-.39-.88-.48-1.81-.66-3.67-.03-.29-.15-1.73,0-3.65.1-1.25.24-1.76.58-2.15.38-.44.89-.69,1.43-.82.01-.17.07-.33.18-.48.44-.64,1.19-.38,1.59-.24.2.07.46.17.74.21.45.08.71,0,1.12-.12.39-.11.87-.25,1.53-.24,1.31.02,2.28.61,2.6.8,1.69,1.01,2.27,2.63,2.94,4.5.13.38.58,1.73.68,3.48.07,1.26-.09,1.78-.28,2.15-.39.76-.98,1.11-2.45,1.85-1.54.78-2.31,1.16-2.94,1.36-1.47.46-2.39.75-3.48.51h0s0,0,0,0Z" style="fill: #78ff63;"/>
  </g>
  <g>
    <path d="m132,450.75c-.35-1.08-3.04-.61-3.3-1.58-.26-.97,2.32-1.78,4.29-4.5.36-.49,2.6-3.58,1.74-4.89-1.63-2.47-12.99,3.68-15.71.23-.6-.76-.84-2.06-2.63-4.47-.71-.96-1.16-1.43-1.71-1.41-.77.02-1.05.98-2.26,2.73-1.82,2.62-2.47,2.29-3.67,4.44-.89,1.59-.99,2.61-1.64,2.67-.91.08-1.28-1.9-2.39-1.98-1.13-.08-2.26,1.88-2.82,3.41-1.05,2.88-.4,5.07-.26,7.26.16,2.38-.21,5.86-2.8,10.34l-24.39,38.86c5.24-7.92,20.11-29.53,26.1-37.45,1.73-2.29,3.59-4.58,6.45-5.02,2.75-.42,6.11.95,10.78.87.55,0,2.07-.05,2.44-.86.31-.67-.45-1.25-.18-1.87.37-.84,2.04-.48,4.31-1.04,1.6-.39,2.69-1.04,3.62-1.6.28-.17,4.48-2.71,4.01-4.16h0Z" style="fill: #78ff63;"/>
    <path d="m68.12,459.83c-.63-.14-1.17,1.32-1.72,1.16-.55-.15-.2-1.65-.97-3.41-.14-.32-1.01-2.31-1.9-2.26-1.68.09-1.94,7.44-4.42,7.78-.54.08-1.25-.18-2.95,0-.68.07-1.04.16-1.19.43-.21.38.18.8.69,1.9.76,1.65.41,1.88,1.12,3.08.53.9,1,1.24.84,1.57-.22.47-1.3.08-1.66.6-.36.53.27,1.65.86,2.37,1.11,1.35,2.37,1.66,3.49,2.22,1.21.61,2.82,1.8,4.27,4.36l12.04,23.18c-2.38-4.86-8.69-18.39-10.85-23.62-.62-1.51-1.21-3.08-.6-4.61.59-1.47,2.23-2.72,3.54-5.04.15-.27.57-1.03.28-1.44-.24-.34-.74-.14-.97-.45-.31-.42.35-1.14.73-2.41.27-.9.26-1.62.26-2.24,0-.19-.04-2.98-.88-3.17h0s0,0,0,0Z" style="fill: #78ff63;"/>
    <path d="m80.12,465.48l.38-3.49.23-.22c1.07-1.01,1.75-2.09,2-3.2.04-.18.07-.35.1-.53.13-.72.28-1.61.97-2.54.39-.52,1.41-1.68,2.46-1.28.28.11.48.29.61.49.03-.03.07-.07.1-.1.46-.44.77-.6,1.08-.76.24-.12.48-.24.89-.57.18-.14.33-.27.45-.38.37-.33.84-.72,1.49-.56.69.19.92.84,1.08,1.28.28.77.37,1.31.42,1.66.02.13.04.27.06.32.15.38,2.04.48,2.75.52,1.6.09,2.98.16,3.31,1.25.24.78-.26,1.64-1.52,2.6-.39.3-.79.51-1.13.66.21.2.38.47.39.84h0c.02.87-.87,1.54-2.66,1.99-.44.11-1.04.26-1.82.23-.37-.02-.69-.07-.97-.13-.04.16-.12.32-.25.47-.4.46-1.04.57-1.91.31-.96-.27-1.72-.63-2.39-.95-.59-.28-1.09-.52-1.52-.58-.79-.11-1.52.38-2.41,1.03l-2.21,1.65h0Z" style="fill: #78ff63;"/>
    <path d="m86.42,445.59l-3.47.52-.27-.17c-1.25-.78-2.46-1.16-3.6-1.12-.18,0-.36.02-.54.04-.73.06-1.63.14-2.7-.3-.6-.24-1.99-.94-1.86-2.06.03-.3.16-.53.32-.71-.04-.02-.08-.05-.13-.07-.54-.33-.78-.6-1.01-.85-.18-.2-.36-.4-.78-.72-.19-.14-.35-.25-.48-.34-.41-.27-.91-.63-.92-1.3,0-.71.58-1.11.96-1.37.68-.47,1.17-.68,1.5-.83.12-.05.25-.11.3-.14.33-.24-.06-2.09-.2-2.79-.32-1.57-.6-2.92.37-3.52.7-.43,1.65-.16,2.9.81.39.3.69.63.93.92.14-.25.36-.48.71-.59h0c.84-.24,1.71.45,2.6,2.07.22.4.52.94.68,1.71.08.36.1.69.12.97.16,0,.34.03.52.12.54.27.82.86.79,1.77-.02,1-.18,1.83-.32,2.56-.12.64-.22,1.19-.18,1.61.09.79.75,1.38,1.6,2.07l2.16,1.71h0Z" style="fill: #78ff63;"/>
    <path d="m86.89,435.15l.38-3.49.23-.22c1.07-1.01,1.75-2.09,2-3.2.04-.18.07-.35.1-.53.13-.72.28-1.61.97-2.54.39-.52,1.41-1.68,2.46-1.28.28.11.48.29.61.49.03-.03.07-.07.1-.1.46-.44.77-.6,1.08-.76.24-.12.48-.24.89-.57.18-.14.33-.27.45-.38.37-.33.84-.72,1.49-.56.69.19.92.84,1.08,1.28.28.77.37,1.31.42,1.66.02.13.04.27.06.32.15.38,2.04.48,2.75.52,1.6.09,2.98.16,3.31,1.25.24.78-.26,1.64-1.52,2.6-.39.3-.79.51-1.13.66.21.2.38.47.39.84h0c.02.87-.87,1.54-2.66,1.99-.44.11-1.04.26-1.82.23-.37-.02-.69-.07-.97-.13-.04.16-.12.32-.25.47-.4.46-1.04.57-1.91.31-.96-.27-1.72-.63-2.39-.95-.59-.28-1.09-.52-1.52-.58-.79-.11-1.52.38-2.41,1.03l-2.21,1.65h0Z" style="fill: #78ff63;"/>
    <path d="m75.62,502.08l-.61-.61v-.86s0,.86,0,.86l-.85-.09c0-.08,0-.27,0-.56-.03-1.61-.13-6.5.55-14.01.48-5.25,1.27-10.57,2.36-15.83,1.09-5.27,2.23-9.18,3.14-12.33.69-2.38,1.38-4.63,2.06-6.82,1.81-5.86,3.52-11.4,4.57-17.72.24-1.41.73-4.35-.28-7.81-.58-2.01-1.58-3.9-2.97-5.62l1.34-1.09c1.53,1.9,2.64,3.99,3.29,6.23,1.12,3.84.58,7.04.32,8.58-1.08,6.43-2.8,12.02-4.63,17.94-.67,2.19-1.37,4.43-2.05,6.8-.9,3.12-2.03,7-3.11,12.2-1.08,5.2-1.86,10.45-2.33,15.63-.67,7.42-.57,12.24-.54,13.82.02.85.02,1.02-.25,1.29h0s0,0,0,0Z" style="fill: #78ff63;"/>
    <path d="m79.89,422.66c-.07-.02-.14-.03-.21-.05-1.42-.4-2.55-1.55-3.38-3.43-.39-.88-.48-1.81-.66-3.67-.03-.29-.15-1.73,0-3.65.1-1.25.24-1.76.58-2.15.38-.44.89-.69,1.43-.82.01-.17.07-.33.18-.48.44-.64,1.19-.38,1.59-.24.2.07.46.17.74.21.45.08.71,0,1.12-.12.39-.11.87-.25,1.53-.24,1.31.02,2.28.61,2.6.8,1.69,1.01,2.27,2.63,2.94,4.5.13.38.58,1.73.68,3.48.07,1.26-.09,1.78-.28,2.15-.39.76-.98,1.11-2.45,1.85-1.54.78-2.31,1.16-2.94,1.36-1.47.46-2.39.75-3.48.51h0s0,0,0,0Z" style="fill: #78ff63;"/>
  </g>
  <path d="m599,502.45c0,.66.53,1.19,1.19,1.19h159.29c.66,0,1.19-.53,1.19-1.19s-.53-1.19-1.19-1.19h-159.29c-.66,0-1.19.53-1.19,1.19Z" style="fill: #3f3d56;"/>
  <path d="m0,502.45c0,.66.53,1.19,1.19,1.19h159.29c.66,0,1.19-.53,1.19-1.19s-.53-1.19-1.19-1.19H1.19c-.66,0-1.19.53-1.19,1.19Z" style="fill: #3f3d56;"/>
  <path d="m525.08,503H238.08V143.5c0-36.7,13.84-71.62,38.98-98.33C304.47,16.04,341.59,0,381.58,0c79.13,0,143.5,64.37,143.5,143.5v359.5Zm-285-2h283V143.5c0-78.02-63.48-141.5-141.5-141.5-39.43,0-76.03,15.82-103.06,44.55-24.79,26.34-38.44,60.77-38.44,96.95v357.5Z" style="fill: #3f3d56;"/>
  <path d="m381.58,150.65c-.26,0-.52-.1-.71-.29l-103.79-103.79c-.39-.39-.39-1.02,0-1.41s1.02-.39,1.41,0l102.08,102.08V1c0-.55.45-1,1-1s1,.45,1,1v148.65c0,.4-.24.77-.62.92-.12.05-.25.08-.38.08Z" style="fill: #3f3d56;"/>
  <rect x="360.6" y="97.29" width="146.74" height="2" transform="translate(55.33 332) rotate(-44.45)" style="fill: #3f3d56;"/>
  <rect x="239.08" y="149" width="285" height="2" style="fill: #3f3d56;"/>
  <path d="m590.19,554.13c-2.36,0-4.69-.81-6.61-2.37l-60.13-48.98,1.26-1.55,60.13,48.98c2.56,2.08,6.01,2.5,8.99,1.1,2.99-1.41,4.85-4.33,4.87-7.63l2.76-433.83c.02-3.16-1.62-5.96-4.38-7.49-2.76-1.53-5.99-1.44-8.66.25-38.42,24.29-62.16,39.77-63.51,41.41,0,0,.08-.1.12-.27l-1.94-.49c.18-.71.51-2.03,64.26-42.35,3.29-2.08,7.29-2.2,10.7-.31,3.41,1.89,5.43,5.35,5.4,9.25l-2.76,433.83c-.03,4.08-2.33,7.69-6.02,9.43-1.45.68-2.98,1.02-4.5,1.02Z" style="fill: #3f3d56;"/>
  <rect x="561.24" y="383.23" width="2" height="79.78" transform="translate(-6.32 837.72) rotate(-73.06)" style="fill: #3f3d56;"/>
  <rect x="561.24" y="287.79" width="2" height="76.43" transform="translate(207.26 870.41) rotate(-87)" style="fill: #3f3d56;"/>
  <rect x="522.9" y="225.12" width="80.06" height="2" transform="translate(-37.88 142.14) rotate(-13.93)" style="fill: #3f3d56;"/>
  <path d="m171.97,554.13c-1.52,0-3.05-.33-4.5-1.02-3.69-1.74-6-5.35-6.02-9.43l-2.76-433.83c-.02-3.9,2-7.36,5.4-9.25,3.41-1.89,7.41-1.77,10.7.31,63.75,40.31,64.08,41.63,64.26,42.35l-1.94.49c.04.17.12.27.12.27-1.35-1.64-25.09-17.12-63.51-41.41-2.67-1.69-5.9-1.78-8.66-.25-2.76,1.53-4.4,4.33-4.38,7.49l2.76,433.83c.02,3.3,1.89,6.22,4.87,7.63,2.99,1.41,6.43.99,8.99-1.1l60.13-48.98,1.26,1.55-60.13,48.98c-1.92,1.57-4.25,2.37-6.61,2.37h0Z" style="fill: #3f3d56;"/>
  <rect x="160.03" y="422.12" width="79.78" height="2" transform="translate(-114.61 76.61) rotate(-16.94)" style="fill: #3f3d56;"/>
  <rect x="161.71" y="325" width="76.43" height="2" transform="translate(-16.75 10.89) rotate(-2.99)" style="fill: #3f3d56;"/>
  <rect x="198.22" y="186.09" width="2" height="80.06" transform="translate(-68.2 365.05) rotate(-76.07)" style="fill: #3f3d56;"/>
  <circle cx="176.08" cy="350" r="11" style="fill: #3f3d56;"/>
  <rect x="288.32" y="321.57" width="31.36" height="40.04" style="fill: #ffb6b6;"/>
  <path d="m317.68,249.51c1.59-2.98,2.33-4.28,2-6.01-.58-3.02-3.96-4.67-5.34-5.34-4.43-2.15-10.16-2.02-14.68.67-2.71,1.62-4.16,3.67-5.34,5.34-1.06,1.5-4.34,6.15-4,12.01.25,4.4,2.26,4.68,2,7.34-.66,6.69-13.51,6.59-16.68,14.01-2.86,6.69,2.87,17.81,11.34,22.02,12.9,6.41,26.86-5.82,29.36-8.01,6.02-5.28,10.01-12.54,8.67-14.01-.78-.86-2.84.86-6.01,0-3.61-.98-5.53-4.48-6.01-5.34-2.74-4.98-1.13-10.44-.67-12.01.43-1.46,2.07-4.53,5.34-10.68h0Z" style="fill: #2f2e41;"/>
  <g>
    <polygon points="334.47 497.78 343.62 497.77 347.97 462.5 334.47 462.5 334.47 497.78" style="fill: #ffb6b6;"/>
    <path d="m365.8,497.57h0c.28.48.43,2.03.43,2.58h0c0,1.71-1.39,3.1-3.1,3.1h-28.32c-1.17,0-2.12-.95-2.12-2.12v-1.18s-1.4-3.54,1.48-7.91c0,0,3.58,3.42,8.94-1.94l1.58-2.86,11.43,8.36,6.34.78c1.39.17,2.62-.03,3.33,1.17h0,0Z" style="fill: #2f2e41;"/>
  </g>
  <g>
    <polygon points="281.76 497.78 290.9 497.77 295.25 462.5 281.76 462.5 281.76 497.78" style="fill: #ffb6b6;"/>
    <path d="m313.09,497.57h0c.28.48.43,2.03.43,2.58h0c0,1.71-1.39,3.1-3.1,3.1h-28.32c-1.17,0-2.12-.95-2.12-2.12v-1.18s-1.4-3.54,1.48-7.91c0,0,3.58,3.42,8.94-1.94l1.58-2.86,11.43,8.36,6.34.78c1.39.17,2.62-.03,3.33,1.17h0Z" style="fill: #2f2e41;"/>
  </g>
  <polygon points="311 264.19 310.34 284.87 286.32 288.21 298.66 260.12 311 264.19" style="fill: #ffb6b6;"/>
  <circle cx="304.33" cy="256.85" r="14.01" style="fill: #ffb6b6;"/>
  <path d="m288.32,345.59s-15.01,16.35-5.67,31.03l-1.33,47.38s-5.56,34.32.89,56.86l11.12-.81,8.01-58.72,8.01-38.7,18.68,38.03s-1.33,27.36,5.34,56.72h14.68l-1.33-68.06-27.29-69.72-31.09,6h0Z" style="fill: #2f2e41;"/>
  <path d="m310.34,276.86l-1.01-.37-13.67-4.97s-17.35,13.35-17.35,20.68,9.34,34.03,9.34,34.03c0,0-12.68,13.35-1.33,14.01s13.55-12.12,32.23-4.11l5.14-15.24s8.01-17.35,4-21.35l-17.35-22.69h0Z" style="fill: #e6e6e6;"/>
  <g>
    <path id="uuid-3e90db07-4bdb-4051-8674-28f7b9d8527d-443" d="m330.5,267.29c.83-3.89,3.51-6.61,5.98-6.08,2.47.53,3.8,4.11,2.97,7.99-.31,1.56-.99,3.02-1.98,4.26l-3.72,16.42-6.49-1.49,3.3-16.4c-.4-1.54-.42-3.15-.07-4.7h0Z" style="fill: #ffb6b6;"/>
    <path d="m286.75,284.33l29.92,18.85,10.82-30.02,11.21,2.95-9.8,35.01c-1.4,5.01-6.87,7.67-11.68,5.69l-41.08-16.97,10.6-15.51h0Z" style="fill: #e6e6e6;"/>
  </g>
  <g>
    <path d="m332.44,284.8l-13.06-14.16c-.21-.23-.32-.54-.29-.85.03-.31.18-.6.43-.79l12.16-9.31c.25-.19.56-.27.87-.21.3.05.58.23.75.49l10.57,16.17c.32.49.21,1.15-.26,1.5l-9.66,7.3c-.1.07-.2.13-.31.17-.41.14-.87.03-1.18-.3h0Z" style="fill: #78ff63;"/>
    <path d="m318.22,269.26c.15-.16.35-.37.59-.61-.18-.07-.34-.2-.45-.38l-.74-1.27c-.19-.33-.15-.74.1-1.03,1.5-1.7,6.82-7.38,11.96-8.9.32-.09.67,0,.89.25l1.04,1.13c.13.14.2.31.22.48.38-.18.76-.36,1.14-.53.24-.1.52-.05.72.12l.49.45c.31.28.28.78-.05,1.03l-14.62,11.02c-.33.25-.81.14-1-.23l-.4-.78c-.13-.25-.08-.56.11-.76h0Z" style="fill: #3f3d56;"/>
  </g>
  <g>
    <g>
      <path d="m426.73,435.15c-4.75,2.86-5.22,4.22-8.09,5.4-1.46.6-4.18,1.42-9.44.67-7.25-1.03-11.72-3.95-24.28-10.79-8.96-4.88-13.34-7.01-19.56-8.09-4.66-.81-7.37-.52-9.44,0-7.24,1.8-11.2,7.39-12.14,8.77-3.27,4.77-3.69,9.43-4.05,13.49-.45,5.11-1.11,12.5,2.7,18.21,4.77,7.16,11.42,3.99,22.94,10.79,12.73,7.52,10.6,14.94,20.91,18.89,13.2,5.05,27.56-2.93,28.33-3.37,13.66-7.84,16.46-22.06,23.61-20.91,4.27.68,4.7,5.99,11.47,7.42,1.27.27,6.48,1.37,10.12-2.02,2.24-2.09,2.17,2.58,1.01-.34-1.48-3.75-4.47-11.07-6.41-15.18-1.03-2.19.13-2.87-.67-8.77-.39-2.88-.59-4.34-1.35-6.07-1.87-4.3-5.52-6.52-8.09-8.09-3.14-1.91-6.22-3.8-10.12-3.37-2.23.24-3.96,1.29-7.42,3.37h0Z" style="fill: #3f3d56;"/>
      <path d="m344.43,451.34c-1.2.98-1.48,2.97-2.02,6.75-.5,3.5-.2,5.64,0,9.44.29,5.71-.17,5.18,0,12.82.14,6.28.21,9.43.67,12.14.84,4.88,1.28,3.01,5.4,15.52.84,2.54,1.5,4.69,3.37,5.4,2.35.88,5.05-1.09,5.4-1.35.57-.43,2.57-1.93,2.7-4.05.16-2.69-2.89-3.37-5.4-7.42-1.57-2.53-1.94-5.06-2.7-10.12-.72-4.81-1.08-7.22,0-9.44,1.96-4.06,6.45-5.32,6.75-5.4,2.69-.71,3.55.3,6.75,0,2.99-.28,7.9-1.68,8.77-4.05,2.37-6.49-23.96-24.92-29.68-20.24h0Z" style="fill: #3f3d56;"/>
      <path d="m355.22,441.9c-1.2.98-1.48,2.97-2.02,6.75-.5,3.5-.2,5.64,0,9.44.29,5.71-.17,5.18,0,12.82.14,6.28.21,9.43.67,12.14.84,4.88,1.28,3.01,5.4,15.52.84,2.54,1.5,4.69,3.37,5.4,2.35.88,5.05-1.09,5.4-1.35.57-.43,2.57-1.93,2.7-4.05.16-2.69-2.89-3.37-5.4-7.42-1.57-2.53-1.94-5.06-2.7-10.12-.72-4.81-1.08-7.22,0-9.44,1.96-4.06,6.45-5.32,6.75-5.4,2.69-.71,3.55.3,6.75,0,2.99-.28,7.9-1.68,8.77-4.05,2.37-6.49-23.96-24.92-29.68-20.24h0Z" style="fill: #3f3d56;"/>
      <path d="m375.46,474.95c-.76,1.16-1.63,4.14-3.37,10.12-.78,2.66-5.81,20.19-7.42,25.63-.46,1.56-1.06,3.52-2.7,5.4-1.38,1.58-2.11,1.53-2.7,2.7-1.53,3.04,1.46,7.32,2.02,8.09.66.91,3.73,5.11,8.09,4.72.46-.04,3.41-.3,4.05-2.02.98-2.64-4.8-5.11-4.72-9.44.04-2.56,2.09-3.62,4.72-6.75,5.64-6.71,3.23-10.2,7.42-15.52,6.26-7.95,17.9-8.1,19.56-8.09,4.31,0,10.31.02,14.17,4.05,5.38,5.62,3.16,15.46,5.4,30.36,0,0,.36,2.42,1.35,6.07,1.63,6.03,2.93,7.59,3.37,8.09.61.69,2.38,2.64,5.4,3.37.41.1,2.33.54,4.72,0,1.59-.36,3.03-.69,4.05-2.02.98-1.28,1.35-3.22.67-4.72-.81-1.82-2.49-1.53-4.72-3.37-1.58-1.3-2.4-3.12-4.05-6.75-.73-1.61-1.82-4.04-2.7-7.42-1.02-3.91-1.14-6.93-1.35-12.82-.18-4.96-.09-9.08,0-13.49.11-5.14.25-6.82,0-10.12-.26-3.46-.52-6.84-1.35-8.77-4.48-10.4-40.03-12.38-49.92,2.7h0Z" style="fill: #3f3d56;"/>
      <path d="m347.13,429.08c-2.88-1.59-3.3-5.33-4.05-12.14-.55-4.97-.87-7.92.67-11.47,2.09-4.79,6.02-7.02,6.75-7.42.8-.44,6.04-3.22,11.47-1.35.76.26,2.76,1.75,6.75,4.72,4.75,3.55,5.45,4.22,6.07,5.4,1.67,3.15,1.49,7.4,0,8.09-1.13.53-3.08-.96-4.05-2.02-1.15-1.27-.98-2.05-2.02-3.37-.83-1.05-1.61-1.42-4.05-2.7-6.04-3.17-6.35-3.59-7.42-3.37-2.68.54-3.95,3.79-4.05,4.05-.82,2.17-.26,4.14.67,7.42.49,1.74,1.05,3.07,2.02,5.4,1.76,4.21,2.22,4.52,2.02,5.4-.65,2.87-6.99,5.48-10.79,3.37h0Z" style="fill: #3f3d56;"/>
    </g>
    <path d="m416.27,440.89c-1.12.18-1.66,6.56,0,12.14,1.13,3.82,3.42,7.68,3.83,8.36.32.54.63,1.03,1.57,2.43,4.6,6.87,6.93,10.3,8.09,10.12,1.56-.24-2.71-3.93-3.04-7.46-.61-6.55-3.55-7.37-8.77-16.86-2.82-5.14-.82-8.88-1.69-8.73h0Z" style="fill: #78ff63;"/>
    <path d="m439.88,438.86c.56-2.87-2.64-6.86-6.07-7.42-5-.82-9.34,5.82-10.79,10.12-2,5.91.25,10.99,1.35,13.49,1.38,3.13,2.42,3.34,2.7,3.37,2.04.26,4.46-3.48,5.4-6.75.82-2.87-.11-3.26.67-5.4,1.61-4.39,6.14-4.36,6.75-7.42h0Z" style="fill: #2f2e41;"/>
    <polygon points="417.26 453.25 283.41 365.89 285.38 365.45 419.24 452.8 417.26 453.25" style="fill: #78ff63;"/>
  </g>
  <g>
    <path id="uuid-fc78d82d-5a48-4799-8e6b-2c24442dd034-444" d="m289.59,364.81c.48,4.24-1.32,7.92-4.02,8.23-2.7.3-5.27-2.89-5.75-7.13-.21-1.69-.02-3.41.57-5.01l-1.8-17.99,7.12-.69,2.22,17.84c.93,1.43,1.5,3.06,1.67,4.76h0Z" style="fill: #ffb6b6;"/>
    <polygon points="286.14 279.47 274.16 290.42 273.25 327.09 278.83 354.67 287.14 353.75 284.15 321.95 289.15 286.82 286.14 279.47" style="fill: #e6e6e6;"/>
  </g>
  <path d="m311,248.84c1.59-2.98,2.33-4.28,2-6.01-.58-3.02-3.96-4.67-5.34-5.34-4.43-2.15-10.16-2.02-14.68.67-2.71,1.62-4.16,3.67-5.34,5.34-1.06,1.5-4.34,6.15-4,12.01.25,4.4,2.26,4.68,2,7.34-.66,6.69-13.51,6.59-16.68,14.01-2.86,6.69,2.87,17.81,11.34,22.02,12.9,6.41,26.86-5.82,29.36-8.01,6.02-5.28,10.01-12.54,8.67-14.01-.78-.86-2.84.86-6.01,0-3.61-.98-5.53-4.48-6.01-5.34-2.74-4.98-1.13-10.44-.67-12.01.43-1.46,2.07-4.53,5.34-10.68h0Z" style="fill: #2f2e41;"/>
  <path d="m381.58,150.65c-.11,0-.22-.02-.33-.05l-135.5-46.65c-.52-.18-.8-.75-.62-1.27.18-.52.75-.8,1.27-.62l135.17,46.54,135.49-49.26c.52-.19,1.09.08,1.28.6.19.52-.08,1.09-.6,1.28l-135.82,49.38c-.11.04-.23.06-.34.06h0Z" style="fill: #3f3d56;"/>
</svg>