<?xml version="1.0" encoding="UTF-8"?>
<svg xmlns="http://www.w3.org/2000/svg" viewBox="0 0 350 350">
  <g id="bg">
    <rect width="349.9999999529" height="350"/>
  </g>
  <g id="Layer_1" data-name="Layer 1">
    <path d="m181.0247809614,189.6263231559c0-3.7526434627-.0087027088-7.1690223033.0018099384-10.585326177.0215785915-7.0094643466.0859767609-14.0191817069.0253016253-21.0278682706-.0054110592-.6253187557-.6536690847-1.4882548902-1.2421616326-1.8288488583-8.5425526871-4.9440195353-17.1284407377-9.8132219726-25.6913903985-14.7222225331-.3976706531-.2279841152-.6772733067-.6616027992-1.011858699-.9994510998.347470653-.2739014223.6664980778-.5975996956,1.0465945108-.8143574978,8.573115325-4.8890124755,17.1460337136-9.7785965747,25.7518029524-14.6096876471.4320313482-.2425277194,1.272555468-.1558096051,1.7322141654.108580375,5.5452009877,3.1895473436,11.0440750557,6.4593843784,16.5770097254,9.6704378893,3.2696677099,1.8975467723,6.5627989731,3.7563918143,9.8799752204,5.5694226289.8866447252.4846150075,1.2183042068,1.0819523185,1.2156877674,2.0712360146-.026267551,9.9266845755-.0020631422,19.8535753104-.0626163648,29.7799600178-.0034885858.5717360696-.4758637414,1.3849315783-.970670879,1.6730954785-8.9212142985,5.1953839936-17.8795182665,10.3271584605-27.2516979315,15.7150296796Z" style="fill: #fff;"/>
    <path d="m181.0845745727,113.5170793977c0-2.9346547493.002897777-5.5308146074-.0005532972-8.12696978-.0099405941-7.4664680591-.0414785355-14.9329923435-.0193560247-22.3993620084.004970297-1.6778090306-.4943663754-2.7351346791-2.1148801482-3.6355800995-7.4612598762-4.1458830291-14.8132857524-8.4878587294-22.2132046606-12.7443860695-.8852567932-.5092112222-1.8445710123-.8903764109-2.7261141496-1.4051843906-.3134194293-.1830249805-.6807431367-.5839838084-.6856571662-.8908660394-.0043044648-.2680305666.4196806289-.6243067008.7334095295-.8036090995,3.6813302181-2.1038935279,7.3803003018-4.1769264085,11.0691891227-6.2676491659,4.6216166397-2.619357469,9.2784848768-5.180573905,13.8322710288-7.9130730244,1.3558220103-.8135545306,2.2363241986-.8525168884,3.6380136105-.0043100187,5.9480294962,3.5993323682,12.0168278327,6.9990005888,18.0296587489,10.491959424,2.5565613749,1.4851437584,5.1104312872,2.9789251244,7.6021443526,4.568024729.4914779764.3134465317.980967834,1.0797548474.9846252224,1.6404004816.0646138616,9.8724459279.0521412294,19.7453908551.0612471887,29.6182256745.0009096581.9893399213-.3072862703,1.6626047794-1.271514519,2.2081351859-5.8758945437,3.3244083487-11.7092789807,6.7241163956-17.5448015833,10.1193779604-3.0424688675,1.7701871558-6.0603113198,3.5826416613-9.3744772552,5.5448662405Z" style="fill: #fff;"/>
    <path d="m218.792661513,102.4136513772c2.0173873028-1.1958881508,3.7791512907-2.2799864006,5.5776392093-3.2993646746,7.1599567182-4.0582371978,14.3240490986-8.1094415509,21.5157313166-12.1109849307.4591991794-.2555017014,1.3011487428-.3015548862,1.7347837152-.049487612,3.3100490289,1.9241225851,6.5241431912,4.0138520294,9.8425198121,5.9228172177,5.0945169587,2.9307236656,10.2456765479,5.7633061154,15.3791493819,8.6261377626,1.4117331631.7872897138,2.0696879567,1.8128996223,2.0486814183,3.5719073194-.1104718852,9.2588032874-.1117847939,18.5196634828-.0482400151,27.77910399.0120787596,1.7599916394-.3501714936,2.9213246739-2.0263994829,3.8341419974-5.4813936271,2.9849435715-10.8812931386,6.1204677976-16.2890325902,9.2387214937-2.5699061536,1.4818639507-5.0817629889,3.0639400814-7.631487861,4.5812165839-.5460574647.3249539711-1.1420617257.5661041713-2.1308319883,1.0488918574,0-2.8124256891.0017818046-5.2500630725-.0003376051-7.6876910851-.0068833925-7.879381786-.0352234636-15.7588385389-.0030009341-23.6380516491.0052891463-1.2940387375-.4925845708-1.899003944-1.6483755699-2.5360550402-5.419855723-2.9873190893-10.7419560188-6.1513120458-16.1087702321-9.2351839869-2.8396713702-1.6317230477-5.7040910685-3.2203869064-8.5455348653-4.849050362-.5063701117-.2902442353-.9548972193-.6812582179-1.6664937093-1.1970688816Z" style="fill: #fff;"/>
    <path d="m115.1307865595,151.3019581821c0-3.3395001493-.0014395106-6.4454498813.0002907155-9.5514089842.0040418831-7.2644553351-.0033291612-14.5289762663.0317630115-21.7932816673.0041544181-.8597125521-.2119128345-1.3140924185-1.0258177314-1.7743431406-5.8746285246-3.3219953474-11.6966258236-6.7368373638-17.5401173127-10.1139381652-2.568471332-1.4843847172-5.1592386663-2.9306814966-7.7122645658-4.4408923563-.4399873402-.2602667934-1.011022892-.7440712198-1.0265749983-1.1438516597-.0139660658-.3589936891.5918674265-.8495170358,1.0284623045-1.1025307688,7.1671917826-4.1534921828,14.3489591958-8.2818938371,21.5327170723-12.4067767263,1.2853844611-.7380691718,2.5709705474-1.4843566045,3.9079570075-2.1184371321.360083954-.1707702135.9922447815-.0875661788,1.3596857129.1228615946,8.0731784657,4.6233621122,16.1273244448,9.2799299341,24.1829099345,13.9339535624.8841361319.5107972434,1.8102290731.9742715479,2.6072912275,1.5992295247.3698276118.2899724798.6722936317.9144244292.6737190754,1.3882348132.0302813003,10.0774995022.0308721092,20.1552567035-.0364191482,30.2324750793-.0041919298.6282237282-.4479644325,1.534893755-.9649644153,1.8362612236-8.2176265513,4.7899810263-16.4786259777,9.50573532-24.7369573861,14.2257814763-.6881563816.3933239043-1.428294568.6958252493-2.2816805036,1.1066633264Z" style="fill: #fff;"/>
    <path d="m115.1289344205,217.8698151111c0-3.4877661969-.0004126284-6.9609325643.0001219129-10.4340801899.0005157855-3.3761402862-.1304421637-6.7596460833.0568208109-10.1254315483.0992183825-1.7833438699-.6354712329-2.7320985143-2.0198255617-3.5348736056-3.9365831051-2.2828023497-7.8345807627-4.6322410201-11.7784856781-6.9021584112-4.2514021888-2.4469051828-8.5380489415-4.8326466384-12.8082843361-7.2469036787-1.0948075644-.6189652997-1.1384840497-1.2597741184-.0565851907-1.8893847367,7.9526874462-4.6281365751,16.0416794277-9.040208793,23.8037548101-13.9670608779,2.4287966072-1.5416501587,3.716061341-.667731354,5.5444085535.408757742,7.3586701318,4.3326259058,14.7592689392,8.5941174691,22.1397755553,12.8897846281.8826731765.5137584412,1.7880034052,1.012364171,2.5804328676,1.6458824458.3299761452.263780873.5502869062.8622052059.5518905303,1.3094304062.0362784795,10.1279523147.0425101066,20.2560545635.0161440875,30.3840443617-.0011253503.4311728846-.249349487,1.0584970084-.5845069324,1.2616576651-3.4432154781,2.0874007808-6.9233424451,4.1143968756-10.409274344,6.130429042-.3364844209.1946144151-.7807117527.2826444524-1.1756628093.2847810128-5.0158127739.0271568073-10.0317662166.0326106589-15.0476633917.0287123733-.238593014-.0001686758-.4770781819-.1389888773-.8130608841-.2435866287Z" style="fill: #fff;"/>
    <path d="m274.7337486188,195.2091274c0,4.8065955947-.0534353822,9.61415639.0337042407,14.4191495644.0249827761,1.3785874932-.4669828521,2.1198615057-1.6301261397,2.7791778104-2.9762701376,1.6870393464-5.8465322794,3.5614400476-8.8307173806,5.2334672458-.7464823485.4182410715-1.7619609243.4838184828-2.6557328679.4916337959-4.6049520778.040351005-9.2108419474-.0221152744-13.8156627343.0243268019-1.1912207769.0119947251-1.1658816399-.6545558982-1.1608363195-1.4751450305.0379243042-6.1817439754-.0424257053-12.3667677584.1454890346-18.5437606982.0763737719-2.5101398743-.5740411749-3.9348789466-2.9630847836-5.2107334934-7.3928198236-3.9481199986-14.5789503136-8.2824139209-21.853083195-12.4532422298-.6625968635-.3799329182-1.4069598024-.6181219206-2.0669402265-1.0018406739-.8403928289-.4886444855-.8250693094-1.3040983761.0229477677-1.7813947271,5.2107750199-2.9327946298,10.4384678057-5.8356586721,15.6423875669-8.7804855106,3.3334750705-1.8863673136,6.6230802361-3.8504660686,9.9672086225-5.7173419539.4481519909-.2501743567,1.205550237-.3543035641,1.6413983982-.1486502536,1.8442427852.870254791,3.650111126,1.8329720451,5.4173987082,2.8529172572,6.1510333078,3.5499232373,12.2803848669,7.1374236994,18.4167698653,10.7126764226.1760235387.1025548998.3241383906.2651115378.50957736.3375015781,2.8631349234,1.1178146724,3.5248596404,3.1693156158,3.2775639177,6.1510637175-.3327098086,4.0116264456-.0825256868,8.0715316599-.0825256868,12.1107084897-.0052516346-.0000093709-.0104845134-.0000187418-.015736148-.0000281126Z" style="fill: #fff;"/>
    <path d="m209.2571372557,217.8214238919c-1.0881668255.1155241963-2.1763055173.3311856056-3.2645192324.3315979243-16.2216334867.0062222637-32.4433138631-.0058286867-48.6648629485-.0542199059-1.1007895044-.0032798076-2.2544329601-.1802769702-3.285741463-.5492834435-1.0316179743-.3691376656-.999826829-1.0643444369-.0435698114-1.6163266935,7.7889993877-4.4961852279,15.5820125246-8.9853985217,23.3769106233-13.4713507497.8816838061-.5074143561,1.7505573748-1.0616643655,2.6886587413-1.4357311134.4404339636-.1756102725,1.1340342271-.1516583057,1.5389258779.0823887682,7.5556392525,4.3674293504,15.0857330537,8.7790142826,22.6195029992,13.1842082754,1.7002729734.9941752949,3.3941689619,1.9992395512,5.0910002391,2.9993184999-.0187652158.1764536516-.0375304316.3529260449-.0563050254.5293984382Z" style="fill: #fff;"/>
    <g>
      <path d="m67.0874023438,239.7705078125h3.5009765625l-10.3823242188,24.662109375h-.7963867188l-10.5830078125-24.662109375h3.5390625l7.3857421875,17.244140625,7.3359375-17.244140625Z" style="fill: #fff;"/>
      <path d="m78.712890625,239.7705078125h3.515625v24.556640625h-3.515625v-24.556640625Z" style="fill: #fff;"/>
      <path d="m99.1596679688,254.0380859375l-2.671875-1.623046875c-1.67578125-1.0234375-2.8681640625-2.0302734375-3.5771484375-3.0205078125s-1.0634765625-2.1298828125-1.0634765625-3.4189453125c0-1.93359375.6708984375-3.50390625,2.0126953125-4.7109375s3.0849609375-1.810546875,5.2294921875-1.810546875c2.05078125,0,3.931640625.576171875,5.642578125,1.7265625v3.990234375c-1.76953125-1.701171875-3.673828125-2.552734375-5.712890625-2.552734375-1.1484375,0-2.091796875.265625-2.830078125.796875s-1.107421875,1.2109375-1.107421875,2.0390625c0,.736328125.2719726562,1.4248046875.8159179688,2.06640625.5434570312.642578125,1.41796875,1.31640625,2.6235351562,2.0224609375l2.6850585938,1.5888671875c2.9951171875,1.7890625,4.4926757812,4.06640625,4.4926757812,6.83203125,0,1.96875-.6591796875,3.568359375-1.9775390625,4.798828125s-3.0322265625,1.845703125-5.1416015625,1.845703125c-2.42578125,0-4.634765625-.7451171875-6.626953125-2.236328125v-4.46484375c1.8984375,2.4052734375,4.095703125,3.607421875,6.591796875,3.607421875,1.1015625,0,2.0185546875-.306640625,2.7509765625-.919921875.732421875-.6123046875,1.0986328125-1.3798828125,1.0986328125-2.302734375,0-1.4951171875-1.078125-2.9130859375-3.234375-4.25390625Z" style="fill: #fff;"/>
      <path d="m132.0522460938,239.7705078125h3.533203125v13.939453125c0,1.88671875-.1376953125,3.310546875-.4130859375,4.271484375s-.615234375,1.7607421875-1.01953125,2.3994140625-.8994140625,1.2099609375-1.4853515625,1.7138671875c-1.9453125,1.67578125-4.48828125,2.513671875-7.62890625,2.513671875-3.19921875,0-5.765625-.83203125-7.69921875-2.49609375-.5859375-.515625-1.0810546875-1.0927734375-1.4853515625-1.7314453125s-.73828125-1.4208984375-1.001953125-2.3466796875-.3955078125-2.37890625-.3955078125-4.359375v-13.904296875h3.533203125v13.939453125c0,2.30859375.263671875,3.9140625.791015625,4.81640625s1.330078125,1.6259765625,2.408203125,2.1708984375,2.349609375.8173828125,3.814453125.8173828125c2.0859375,0,3.78515625-.544921875,5.09765625-1.634765625.69140625-.5859375,1.189453125-1.27734375,1.494140625-2.07421875s.45703125-2.162109375.45703125-4.095703125v-13.939453125Z" style="fill: #fff;"/>
      <path d="m152.7983398438,239.6298828125h2.470703125l11.0107421875,24.697265625h-3.5986328125l-3.2724609375-7.27734375h-10.4765625l-3.068359375,7.27734375h-3.61328125l10.5478515625-24.697265625Zm5.1650390625,14.291015625l-3.9619140625-8.89453125-3.673828125,8.89453125h7.6357421875Z" style="fill: #fff;"/>
      <path d="m174.3696289062,239.7705078125h3.5161132812v21.357421875h11.056640625v3.19921875h-14.5727539062v-24.556640625Z" style="fill: #fff;"/>
      <path d="m205.259765625,239.6298828125h2.470703125l11.0107421875,24.697265625h-3.5986328125l-3.2724609375-7.27734375h-10.4765625l-3.068359375,7.27734375h-3.61328125l10.5478515625-24.697265625Zm5.1650390625,14.291015625l-3.9619140625-8.89453125-3.673828125,8.89453125h7.6357421875Z" style="fill: #fff;"/>
      <path d="m226.935546875,264.3271484375v-24.556640625h6.15234375c2.484375,0,4.4560546875.615234375,5.9150390625,1.845703125s2.1884765625,2.89453125,2.1884765625,4.9921875c0,1.4296875-.357421875,2.666015625-1.072265625,3.708984375s-1.740234375,1.822265625-3.076171875,2.337890625c.78515625.515625,1.552734375,1.21875,2.302734375,2.109375s1.8046875,2.443359375,3.1640625,4.658203125c.85546875,1.39453125,1.541015625,2.443359375,2.056640625,3.146484375l1.30078125,1.7578125h-4.18359375l-1.0712890625-1.6181640625c-.03515625-.05859375-.10546875-.158203125-.2099609375-.298828125l-.6845703125-.9677734375-1.0888671875-1.7939453125-1.17578125-1.9169921875c-.7255859375-1.0078125-1.390625-1.810546875-1.9951171875-2.4072265625s-1.150390625-1.0263671875-1.63671875-1.2900390625c-.4873046875-.2626953125-1.3056640625-.39453125-2.455078125-.39453125h-.9150390625v10.6875h-3.515625Zm4.5703125-21.568359375h-1.0546875v7.751953125h1.3359375c1.78125,0,3.0029296875-.15234375,3.6650390625-.45703125s1.177734375-.7646484375,1.546875-1.3798828125.5537109375-1.3154296875.5537109375-2.1005859375c0-.7734375-.205078125-1.4736328125-.615234375-2.1005859375s-.9873046875-1.0693359375-1.7314453125-1.3271484375-1.9775390625-.38671875-3.7001953125-.38671875Z" style="fill: #fff;"/>
      <path d="m275.138671875,258.6318359375v3.8671875c-2.578125,1.40625-5.5546875,2.109375-8.9296875,2.109375-2.7421875,0-5.068359375-.55078125-6.978515625-1.65234375s-3.421875-2.619140625-4.53515625-4.552734375-1.669921875-4.025390625-1.669921875-6.275390625c0-3.57421875,1.2744140625-6.580078125,3.8232421875-9.017578125s5.6923828125-3.65625,9.4306640625-3.65625c2.578125,0,5.443359375.673828125,8.595703125,2.021484375v3.779296875c-2.87109375-1.640625-5.677734375-2.4609375-8.419921875-2.4609375-2.8125,0-5.1474609375.8876953125-7.0048828125,2.6630859375s-2.7861328125,3.9990234375-2.7861328125,6.6708984375c0,2.6953125.9140625,4.91015625,2.7421875,6.64453125s4.166015625,2.6015625,7.013671875,2.6015625c2.9765625,0,5.8828125-.9140625,8.71875-2.7421875Z" style="fill: #fff;"/>
      <path d="m302.1767578125,239.7705078125h3.515625v24.556640625h-3.515625v-10.6875h-13.798828125v10.6875h-3.515625v-24.556640625h3.515625v10.6171875h13.798828125v-10.6171875Z" style="fill: #fff;"/>
    </g>
    <rect x="41.7535854062" y="279.3806969779" width="279.1187739464" height="1.724137931" style="fill: #fff;"/>
    <g>
      <path d="m47.3666992188,294.5546875h6.837890625v1.04296875h-2.853515625v7.154296875h-1.177734375v-7.154296875h-2.806640625v-1.04296875Z" style="fill: #fff;"/>
      <path d="m56.2119140625,294.56640625h4.640625v1.04296875h-3.46875v2.49609375h3.3515625v1.048828125h-3.3515625v2.54296875h3.580078125v1.04296875h-4.751953125v-8.173828125Z" style="fill: #fff;"/>
      <path d="m70.1665039062,300.853515625v1.2890625c-.859375.46875-1.8515625.703125-2.9765625.703125-.9140625,0-1.689453125-.18359375-2.326171875-.55078125s-1.140625-.873046875-1.51171875-1.517578125-.556640625-1.341796875-.556640625-2.091796875c0-1.19140625.4248046875-2.193359375,1.2744140625-3.005859375s1.8974609375-1.21875,3.1435546875-1.21875c.859375,0,1.814453125.224609375,2.865234375.673828125v1.259765625c-.95703125-.546875-1.892578125-.8203125-2.806640625-.8203125-.9375,0-1.7158203125.2958984375-2.3349609375.8876953125s-.9287109375,1.3330078125-.9287109375,2.2236328125c0,.8984375.3046875,1.63671875.9140625,2.21484375s1.388671875.8671875,2.337890625.8671875c.9921875,0,1.9609375-.3046875,2.90625-.9140625Z" style="fill: #fff;"/>
      <path d="m79.0122070312,294.56640625h1.11328125v8.185546875h-1.0078125l-5.47265625-6.3037109375v6.3037109375h-1.1015625v-8.185546875h.94921875l5.51953125,6.357421875v-6.357421875Z" style="fill: #fff;"/>
      <path d="m86.7939453125,294.44921875c1.2646484375,0,2.3178710938.400390625,3.1591796875,1.201171875.8408203125.80078125,1.26171875,1.8046875,1.26171875,3.01171875s-.4243164062,2.2060546875-1.2734375,2.9970703125-1.919921875,1.1865234375-3.2119140625,1.1865234375c-1.2333984375,0-2.2612304688-.3955078125-3.0830078125-1.1865234375s-1.232421875-1.7822265625-1.232421875-2.9736328125c0-1.22265625.4135742188-2.234375,1.2412109375-3.03515625s1.8740234375-1.201171875,3.138671875-1.201171875Zm.046875,1.11328125c-.9365234375,0-1.7065429688.29296875-2.3095703125.87890625s-.904296875,1.333984375-.904296875,2.244140625c0,.8828125.3022460938,1.6171875.9072265625,2.203125s1.3623046875.87890625,2.271484375.87890625c.9130859375,0,1.6752929688-.298828125,2.2861328125-.896484375.6103515625-.59765625.916015625-1.341796875.916015625-2.232421875,0-.8671875-.3056640625-1.5966796875-.916015625-2.1884765625-.6108398438-.591796875-1.361328125-.8876953125-2.2509765625-.8876953125Z" style="fill: #fff;"/>
      <path d="m93.5561523438,294.56640625h1.171875v7.119140625h3.685546875v1.06640625h-4.857421875v-8.185546875Z" style="fill: #fff;"/>
      <path d="m104.35546875,294.44921875c1.2646484375,0,2.3178710938.400390625,3.1591796875,1.201171875.8408203125.80078125,1.26171875,1.8046875,1.26171875,3.01171875s-.4243164062,2.2060546875-1.2734375,2.9970703125-1.919921875,1.1865234375-3.2119140625,1.1865234375c-1.2333984375,0-2.2612304688-.3955078125-3.0830078125-1.1865234375s-1.232421875-1.7822265625-1.232421875-2.9736328125c0-1.22265625.4135742188-2.234375,1.2412109375-3.03515625s1.8740234375-1.201171875,3.138671875-1.201171875Zm.046875,1.11328125c-.9365234375,0-1.7065429688.29296875-2.3095703125.87890625s-.904296875,1.333984375-.904296875,2.244140625c0,.8828125.3022460938,1.6171875.9072265625,2.203125s1.3623046875.87890625,2.271484375.87890625c.9130859375,0,1.6752929688-.298828125,2.2861328125-.896484375.6103515625-.59765625.916015625-1.341796875.916015625-2.232421875,0-.8671875-.3056640625-1.5966796875-.916015625-2.1884765625-.6108398438-.591796875-1.361328125-.8876953125-2.2509765625-.8876953125Z" style="fill: #fff;"/>
      <path d="m115.5415039062,298.720703125h2.748046875v3.46875c-1.0078125.4375-2.0078125.65625-3,.65625-1.35546875,0-2.4384765625-.3955078125-3.2490234375-1.1865234375s-1.2158203125-1.7666015625-1.2158203125-2.9267578125c0-1.22265625.419921875-2.240234375,1.259765625-3.052734375s1.892578125-1.21875,3.158203125-1.21875c.4609375,0,.8984375.0498046875,1.3125.1494140625s.9375.2822265625,1.5703125.5478515625v1.1953125c-.9765625-.56640625-1.9453125-.849609375-2.90625-.849609375-.89453125,0-1.6484375.3046875-2.26171875.9140625s-.919921875,1.357421875-.919921875,2.244140625c0,.9296875.306640625,1.689453125.919921875,2.279296875s1.40234375.884765625,2.3671875.884765625c.46875,0,1.029296875-.107421875,1.681640625-.322265625l.111328125-.03515625v-1.705078125h-1.576171875v-1.04296875Z" style="fill: #fff;"/>
      <path d="m120.9125976562,294.56640625h1.171875v8.185546875h-1.171875v-8.185546875Zm2.21484375-2.361328125l-1.32421875,1.7578125h-.65625l.791015625-1.7578125h1.189453125Z" style="fill: #fff;"/>
      <path d="m127.4145507812,294.51953125h.8232421875l3.6704101562,8.232421875h-1.19921875l-1.0913085938-2.42578125h-3.4921875l-1.0229492188,2.42578125h-1.2041015625l3.5161132812-8.232421875Zm1.7216796875,4.763671875l-1.3208007812-2.96484375-1.224609375,2.96484375h2.5454101562Z" style="fill: #fff;"/>
      <path d="m137.9384765625,294.56640625h4.640625v1.04296875h-3.46875v2.49609375h3.3515625v1.048828125h-3.3515625v2.54296875h3.580078125v1.04296875h-4.751953125v-8.173828125Z" style="fill: #fff;"/>
      <path d="m149.0844726562,294.56640625h1.171875v8.185546875h-1.171875v-8.185546875Z" style="fill: #fff;"/>
      <path d="m159.4765625,294.56640625h1.11328125v8.185546875h-1.0078125l-5.47265625-6.3037109375v6.3037109375h-1.1015625v-8.185546875h.94921875l5.51953125,6.357421875v-6.357421875Z" style="fill: #fff;"/>
      <path d="m169.7456054688,294.56640625h1.11328125v8.185546875h-1.0078125l-5.47265625-6.3037109375v6.3037109375h-1.1015625v-8.185546875h.94921875l5.51953125,6.357421875v-6.357421875Z" style="fill: #fff;"/>
      <path d="m177.52734375,294.44921875c1.2646484375,0,2.3173828125.400390625,3.1591796875,1.201171875.8408203125.80078125,1.26171875,1.8046875,1.26171875,3.01171875s-.4248046875,2.2060546875-1.2734375,2.9970703125c-.849609375.791015625-1.919921875,1.1865234375-3.2119140625,1.1865234375-1.2333984375,0-2.2612304688-.3955078125-3.0830078125-1.1865234375s-1.232421875-1.7822265625-1.232421875-2.9736328125c0-1.22265625.4135742188-2.234375,1.2412109375-3.03515625s1.8740234375-1.201171875,3.138671875-1.201171875Zm.046875,1.11328125c-.9365234375,0-1.7065429688.29296875-2.3095703125.87890625s-.904296875,1.333984375-.904296875,2.244140625c0,.8828125.3022460938,1.6171875.9072265625,2.203125s1.3623046875.87890625,2.271484375.87890625c.9130859375,0,1.6748046875-.298828125,2.2861328125-.896484375.6103515625-.59765625.916015625-1.341796875.916015625-2.232421875,0-.8671875-.3056640625-1.5966796875-.916015625-2.1884765625-.611328125-.591796875-1.361328125-.8876953125-2.2509765625-.8876953125Z" style="fill: #fff;"/>
      <path d="m188.9931640625,294.56640625h1.16796875l-3.4609375,8.220703125h-.265625l-3.5283203125-8.220703125h1.1806640625l2.4609375,5.748046875,2.4453125-5.748046875Z" style="fill: #fff;"/>
      <path d="m193.609375,294.51953125h.82421875l3.669921875,8.232421875h-1.19921875l-1.0908203125-2.42578125h-3.4921875l-1.0234375,2.42578125h-1.2041015625l3.515625-8.232421875Zm1.7216796875,4.763671875l-1.3203125-2.96484375-1.224609375,2.96484375h2.544921875Z" style="fill: #fff;"/>
      <path d="m206.474609375,300.853515625v1.2890625c-.859375.46875-1.8515625.703125-2.9765625.703125-.9140625,0-1.689453125-.18359375-2.326171875-.55078125s-1.140625-.873046875-1.51171875-1.517578125-.556640625-1.341796875-.556640625-2.091796875c0-1.19140625.4248046875-2.193359375,1.2744140625-3.005859375s1.8974609375-1.21875,3.1435546875-1.21875c.859375,0,1.814453125.224609375,2.865234375.673828125v1.259765625c-.95703125-.546875-1.892578125-.8203125-2.806640625-.8203125-.9375,0-1.7158203125.2958984375-2.3349609375.8876953125s-.9287109375,1.3330078125-.9287109375,2.2236328125c0,.8984375.3046875,1.63671875.9140625,2.21484375s1.388671875.8671875,2.337890625.8671875c.9921875,0,1.9609375-.3046875,2.90625-.9140625Z" style="fill: #fff;"/>
      <path d="m208.8271484375,294.56640625h1.171875v8.185546875h-1.171875v-8.185546875Z" style="fill: #fff;"/>
      <path d="m216.732421875,294.44921875c1.2646484375,0,2.3173828125.400390625,3.1591796875,1.201171875.8408203125.80078125,1.26171875,1.8046875,1.26171875,3.01171875s-.4248046875,2.2060546875-1.2734375,2.9970703125c-.849609375.791015625-1.919921875,1.1865234375-3.2119140625,1.1865234375-1.2333984375,0-2.2607421875-.3955078125-3.0830078125-1.1865234375-.8212890625-.791015625-1.232421875-1.7822265625-1.232421875-2.9736328125,0-1.22265625.4140625-2.234375,1.2412109375-3.03515625.828125-.80078125,1.8740234375-1.201171875,3.138671875-1.201171875Zm.046875,1.11328125c-.9365234375,0-1.7060546875.29296875-2.3095703125.87890625-.6025390625.5859375-.904296875,1.333984375-.904296875,2.244140625,0,.8828125.302734375,1.6171875.9072265625,2.203125.60546875.5859375,1.3623046875.87890625,2.271484375.87890625.9130859375,0,1.6748046875-.298828125,2.2861328125-.896484375.6103515625-.59765625.916015625-1.341796875.916015625-2.232421875,0-.8671875-.3056640625-1.5966796875-.916015625-2.1884765625-.611328125-.591796875-1.361328125-.8876953125-2.2509765625-.8876953125Zm1.1513671875-3.357421875l-1.32421875,1.7578125h-.65625l.791015625-1.7578125h1.189453125Z" style="fill: #fff;"/>
      <path d="m229.9990234375,294.56640625h1.11328125v8.185546875h-1.0078125l-5.47265625-6.3037109375v6.3037109375h-1.1015625v-8.185546875h.94921875l5.51953125,6.357421875v-6.357421875Z" style="fill: #fff;"/>
      <path d="m239.41015625,294.51953125h.82421875l3.669921875,8.232421875h-1.19921875l-1.0908203125-2.42578125h-3.4921875l-1.0234375,2.42578125h-1.2041015625l3.515625-8.232421875Zm1.7216796875,4.763671875l-1.3203125-2.96484375-1.224609375,2.96484375h2.544921875Z" style="fill: #fff;"/>
      <path d="m245.7001953125,294.56640625h1.171875v7.119140625h3.685546875v1.06640625h-4.857421875v-8.185546875Z" style="fill: #fff;"/>
      <path d="m258.1298828125,294.51953125h.82421875l3.669921875,8.232421875h-1.19921875l-1.0908203125-2.42578125h-3.4921875l-1.0234375,2.42578125h-1.2041015625l3.515625-8.232421875Zm1.7216796875,4.763671875l-1.3203125-2.96484375-1.224609375,2.96484375h2.544921875Z" style="fill: #fff;"/>
      <path d="m264.419921875,294.56640625h1.171875v7.119140625h3.685546875v1.06640625h-4.857421875v-8.185546875Z" style="fill: #fff;"/>
      <path d="m278.2578125,300.853515625v1.2890625c-.859375.46875-1.8515625.703125-2.9765625.703125-.9140625,0-1.689453125-.18359375-2.326171875-.55078125s-1.140625-.873046875-1.51171875-1.517578125-.556640625-1.341796875-.556640625-2.091796875c0-1.19140625.4248046875-2.193359375,1.2744140625-3.005859375s1.8974609375-1.21875,3.1435546875-1.21875c.859375,0,1.814453125.224609375,2.865234375.673828125v1.259765625c-.95703125-.546875-1.892578125-.8203125-2.806640625-.8203125-.9375,0-1.7158203125.2958984375-2.3349609375.8876953125s-.9287109375,1.3330078125-.9287109375,2.2236328125c0,.8984375.3046875,1.63671875.9140625,2.21484375s1.388671875.8671875,2.337890625.8671875c.9921875,0,1.9609375-.3046875,2.90625-.9140625Z" style="fill: #fff;"/>
      <path d="m283.5107421875,294.51953125h.82421875l3.669921875,8.232421875h-1.19921875l-1.0908203125-2.42578125h-3.4921875l-1.0234375,2.42578125h-1.2041015625l3.515625-8.232421875Zm1.7216796875,4.763671875l-1.3203125-2.96484375-1.224609375,2.96484375h2.544921875Z" style="fill: #fff;"/>
      <path d="m296.3056640625,294.56640625h1.11328125v8.185546875h-1.0078125l-5.47265625-6.3037109375v6.3037109375h-1.1015625v-8.185546875h.94921875l5.51953125,6.357421875v-6.357421875Z" style="fill: #fff;"/>
      <path d="m307.1259765625,300.853515625v1.2890625c-.859375.46875-1.8515625.703125-2.9765625.703125-.9140625,0-1.689453125-.18359375-2.326171875-.55078125s-1.140625-.873046875-1.51171875-1.517578125-.556640625-1.341796875-.556640625-2.091796875c0-1.19140625.4248046875-2.193359375,1.2744140625-3.005859375s1.8974609375-1.21875,3.1435546875-1.21875c.859375,0,1.814453125.224609375,2.865234375.673828125v1.259765625c-.95703125-.546875-1.892578125-.8203125-2.806640625-.8203125-.9375,0-1.7158203125.2958984375-2.3349609375.8876953125s-.9287109375,1.3330078125-.9287109375,2.2236328125c0,.8984375.3046875,1.63671875.9140625,2.21484375s1.388671875.8671875,2.337890625.8671875c.9921875,0,1.9609375-.3046875,2.90625-.9140625Z" style="fill: #fff;"/>
      <path d="m309.466796875,294.56640625h4.640625v1.04296875h-3.46875v2.49609375h3.3515625v1.048828125h-3.3515625v2.54296875h3.580078125v1.04296875h-4.751953125v-8.173828125Z" style="fill: #fff;"/>
    </g>
  </g>
</svg>