<?xml version="1.0" encoding="UTF-8"?>
<svg id="Layer_1" data-name="Layer 1" xmlns="http://www.w3.org/2000/svg" viewBox="0 0 500 500">
  <path d="m248.3376204294,499.9999411422c0-22.6397068045.0223659592-42.6680701527-.0042377607-62.6963746431-.0766328393-57.6008794093-.3199509326-115.2021708231-.1493810646-172.8022850812.0383752774-12.9436514716-3.8138669119-21.1005168046-16.3154963996-28.0470894541-57.5606795405-31.9838514261-114.2786332801-65.4805245634-171.366213925-98.3179316233-6.8293867946-3.9283453085-14.2301649899-6.86888037-21.0309468998-10.8404272945-2.4178779089-1.4119394634-5.251644944-4.5052104834-5.2895493591-6.8727061262-.0331957921-2.0677329313,3.2376491726-4.8162738901,5.6579991086-6.1995201821,28.4000596055-16.2307117568,56.9360807-32.2233437633,85.394409515-48.352466979,35.6539287632-20.207320451,71.5798982201-39.9660857038,106.7105812529-61.0462671428,10.4596174096-6.2762413081,17.2523946604-6.5768280286,28.0658650883-.0332546499,45.88670826,27.7674266769,92.7051352955,53.994545056,139.0917816022,80.9413470313,19.7228914313,11.4573157649,39.4249472058,22.9812291162,58.6475474437,35.240541093,3.7916186682,2.41811334,7.5678165961,8.3299072281,7.5959506185,12.6550717397.4985254598,76.1620358317.4022341195,152.3279562774.4725103177,228.4929938563.0070629345,7.6323835889-2.3705562478,12.8263479012-9.8092388582,17.0349151358-45.3302667373,25.6465157347-90.3324601674,51.8738989738-135.3512514935,78.0670269807-23.4714261991,13.6563015622-46.7529771758,27.6386752669-72.320446902,42.7764861972l.0001177156-.0000588578Z" style="fill: #fff;"/>
</svg>