<?xml version="1.0" encoding="UTF-8"?>
<svg id="Layer_1" data-name="Layer 1" xmlns="http://www.w3.org/2000/svg" viewBox="0 0 400 400">
  <circle cx="233.0059337606" cy="90.7373616723" r="13.5767161786" style="fill: #f2f2f2;"/>
  <path d="m338.3248198178,305.8080412373c20.1802736147-15.3706908235,29.8188670898-41.1995777105,23.7847063542-65.8388009972-.1499299521-.6122269022-.3081772768-1.2230261958-.4747419741-1.8324599505-4.0004079535-14.6255411341-13.8975227495-28.5258570311-28.3221745067-33.1991187056-12.1117704326-3.9238912289-25.3321411174-.9064849939-37.9676577457-2.4668768581-24.8042052004-3.0631517844-44.0344052024-23.1326460648-57.5652807869-44.1456345438-13.5309066195-21.0130505489-23.9298569206-44.5340992944-41.9094716712-61.8939146095-29.6364745565-28.6147256748-77.9810167378-34.7754935806-114.7259896725-16.1494513881-36.7449263822,18.6261275387-60.151068142,59.9496511706-59.152859287,101.1336958774.9982554075,41.1840912593,25.4474050052,80.558890175,60.9536325305,101.4498025897,13.0435644465,7.6744521364,28.1296490548,13.1111896516,43.1433911423,11.2087458382,13.027240051-1.6507191516,24.8640561449-8.6505330561,37.8299866078-10.7286658488,20.3854147828-3.2672998335,40.6409792407,5.9496214705,58.2728160897,16.6901116438,17.631805814,10.7404901733,34.6628987005,23.4712531321,54.6990769379,28.4505041179,19.4551104475,4.8349073287,43.5580183747-9.0619326514,61.4345659817-22.6779371654Z" style="fill: #f2f2f2;"/>
  <path d="m309.3306760868,81.1466435216c-.4424035328-.2949175848-.8898347311-.5745814806-1.3322382639-.8593273532-12.7876810984-8.1784600896-26.4939973824-14.8225588982-40.835785763-19.795013225l-3.3254283369,45.8747945883h-21.0814671457v-52.5714356053c-1.3271174935-.2745741603-2.6644144579-.5339023904-4.0017114224-.7779691728v53.3494047781h-25.0527022251c-28.7198566441,0-52.001889549-23.2820329049-52.001889549-52.0018817903v-.0000543112c-1.3423866999.2898356081-2.6745939289.5999991231-4.0068011579.9305138213v51.0714222801h-20.4051840603l-3.1678172291-43.7442747621c-14.7383687766,5.6523840215-28.7303774998,13.0855314881-41.6646057383,22.1340027201-.2237311167.1525446485-.4474622333.3101712738-.6661036145.4627159223-1.1237298013.788140885-2.2322214311,1.5915354591-3.3356078079,2.4050939866v175.0127039205h60.137567929l-1.0627150454-14.720415045-5.8474853761-80.8224236439h117.7581840719l-5.8474853761,80.8224236439-1.0627305629,14.720415045h59.471479832V82.9161412716c-.8847760306-.5999758469-1.7746107618-1.1898187752-2.6694731584-1.76949775Zm-151.6379928291,72.6003361417h-16.9780541185l-3.1373098512-43.3730809737h20.1153639697v43.3730809737Zm81.061392932,0h-28.5153982454v-.8593273532c.0000620699-1.735429109-1.4067221979-3.1423219993-3.1421357894-3.1423840692h-12.4020094953c-1.734823927-.0006827694-3.1417012998,1.4051083793-3.1423840692,3.1399167889v.8617946335h-29.8526952098v-43.3730809737h77.0545917741l.000031035,43.3730809737Zm4.0017114224,0v-43.3730809737h20.7916315377l-3.1372943337,43.3730809737h-17.654337204Z" style="fill: #3f3d56;"/>
  <path d="m-.0399419507,273.8445954787c4.417269704,5.2340170749,9.1950338896,10.1528119343,14.2983704541,14.720415045l371.4831429932.5084769892c5.1033288058-4.5676031107,9.8811007501-9.4863979701,14.2983704541-14.720415045L-.0399419507,273.8445954787Z" style="fill: #3f3d56;"/>
  <path d="m251.8747935779,226.7090516855v43.5785014565c.0009000142,1.1563630749.9380941134,2.093557174,2.0944571882,2.0944571882h64.5788431842c1.1563630749-.0009000142,2.093557174-.9380941134,2.0944571882-2.0944571882v-43.578516974c-.0027310776-1.1552302984-.9392424073-2.0906709216-2.0944571882-2.0921450828h-64.5788742192c-1.1552147809.0014896787-2.0916950757.9369458194-2.0944261532,2.0921606002Z" style="fill: #3f3d56;"/>
  <path d="m253.3897657599,227.2512636899v42.4987016588c.0010551891.6177821623.5015872253,1.1183141986,1.1193693877,1.1193693877h63.5013710094c.6177821623-.0010551891,1.1183141986-.5015872253,1.1193693877-1.1193693877v-42.4987016588c-.00006207-.6185580366-.500811351-1.1203469893-1.1193693877-1.1216970106h-63.5013710094c-.6185580366.0013500213-1.1193073177.503138974-1.1193693877,1.1216970106Z" style="fill: #1fdf64;"/>
  <path d="m250.5241826103,278.7865113925c.2396830925.3005426736.6038164247.4747419741.9882155939.4727867709h69.1487739179c.702724882-.0008689792,1.2716890326-.5712917735,1.2708200534-1.2740166556-.0001241399-.0871462027-.0091863519-.1740751607-.027062496-.2593903l-1.0734065934-5.09861149c-.0904048749-.4224480455-.3886199255-.770381122-.7922607776-.9243145856-.1438470975-.05642158-.2970046867-.0853151394-.4515278147-.0851599645h-67.0062125223c-.154523128-.0001551749-.3076807172.0287383845-.4515278147.0851599645-.4036718871.1539334635-.7018869378.5018665401-.7922607776.9243145856l-1.0734065934,5.09861149c-.0773391514.3746231529.018093389.7641741275.2598558246,1.0606201847Z" style="fill: #2f2e41;"/>
  <rect x="316.9668621021" y="272.5360524162" width="2.1297439519" height="1.2778339572" rx=".2482487449" ry=".2482487449" style="fill: #3f3d56;"/>
  <rect x="312.7074052333" y="272.5360524162" width="2.1297439519" height="1.2778339572" rx=".2482487449" ry=".2482487449" style="fill: #3f3d56;"/>
  <rect x="308.4478552595" y="272.5360524162" width="2.1297439519" height="1.2778339572" rx=".2482487449" ry=".2482487449" style="fill: #3f3d56;"/>
  <rect x="304.1883983906" y="272.5360524162" width="2.1297439519" height="1.2778339572" rx=".2482487449" ry=".2482487449" style="fill: #3f3d56;"/>
  <rect x="299.9288484168" y="272.5360524162" width="2.1297439519" height="1.2778339572" rx=".2482487449" ry=".2482487449" style="fill: #3f3d56;"/>
  <rect x="295.6693915479" y="272.5360524162" width="2.1297439519" height="1.2778339572" rx=".2482487449" ry=".2482487449" style="fill: #3f3d56;"/>
  <rect x="291.4098415741" y="272.5360524162" width="2.1297439519" height="1.2778339572" rx=".2482487449" ry=".2482487449" style="fill: #3f3d56;"/>
  <rect x="287.1503847052" y="272.5360524162" width="2.1297439519" height="1.2778339572" rx=".2482487449" ry=".2482487449" style="fill: #3f3d56;"/>
  <rect x="282.8908347314" y="272.5360524162" width="2.1297439519" height="1.2778339572" rx=".2482487449" ry=".2482487449" style="fill: #3f3d56;"/>
  <rect x="278.6313778625" y="272.5360524162" width="2.1297439519" height="1.2778339572" rx=".2482487449" ry=".2482487449" style="fill: #3f3d56;"/>
  <rect x="274.3718278887" y="272.5360524162" width="2.1297439519" height="1.2778339572" rx=".2482487449" ry=".2482487449" style="fill: #3f3d56;"/>
  <rect x="270.1123710198" y="272.5360524162" width="2.1297439519" height="1.2778339572" rx=".2482487449" ry=".2482487449" style="fill: #3f3d56;"/>
  <rect x="265.852883116" y="272.5360524162" width="2.1297439519" height="1.2778339572" rx=".2482487449" ry=".2482487449" style="fill: #3f3d56;"/>
  <rect x="261.5933641772" y="272.5360524162" width="2.1297439519" height="1.2778339572" rx=".2482487449" ry=".2482487449" style="fill: #3f3d56;"/>
  <rect x="257.3338762733" y="272.5360524162" width="2.1297439519" height="1.2778339572" rx=".2482487449" ry=".2482487449" style="fill: #3f3d56;"/>
  <rect x="253.0743262995" y="272.5360524162" width="2.1297439519" height="1.2778339572" rx=".2482487449" ry=".2482487449" style="fill: #3f3d56;"/>
  <rect x="317.0172318625" y="274.6657963682" width="2.1297439519" height="1.2778339572" rx=".2482487449" ry=".2482487449" style="fill: #3f3d56;"/>
  <rect x="312.7577439586" y="274.6657963682" width="2.1297439519" height="1.2778339572" rx=".2482487449" ry=".2482487449" style="fill: #3f3d56;"/>
  <rect x="308.4982250198" y="274.6657963682" width="2.1297439519" height="1.2778339572" rx=".2482487449" ry=".2482487449" style="fill: #3f3d56;"/>
  <rect x="304.2387371159" y="274.6657963682" width="2.1297439519" height="1.2778339572" rx=".2482487449" ry=".2482487449" style="fill: #3f3d56;"/>
  <rect x="299.9791871421" y="274.6657963682" width="2.1297439519" height="1.2778339572" rx=".2482487449" ry=".2482487449" style="fill: #3f3d56;"/>
  <rect x="295.7197302733" y="274.6657963682" width="2.1297439519" height="1.2778339572" rx=".2482487449" ry=".2482487449" style="fill: #3f3d56;"/>
  <rect x="291.4602113344" y="274.6657963682" width="2.1297439519" height="1.2778339572" rx=".2482487449" ry=".2482487449" style="fill: #3f3d56;"/>
  <rect x="287.2007234306" y="274.6657963682" width="2.1297439519" height="1.2778339572" rx=".2482487449" ry=".2482487449" style="fill: #3f3d56;"/>
  <rect x="282.9411734568" y="274.6657963682" width="2.1297439519" height="1.2778339572" rx=".2482487449" ry=".2482487449" style="fill: #3f3d56;"/>
  <rect x="278.6817165879" y="274.6657963682" width="2.1297439519" height="1.2778339572" rx=".2482487449" ry=".2482487449" style="fill: #3f3d56;"/>
  <rect x="274.4221666141" y="274.6657963682" width="2.1297439519" height="1.2778339572" rx=".2482487449" ry=".2482487449" style="fill: #3f3d56;"/>
  <rect x="270.1627097452" y="274.6657963682" width="2.1297439519" height="1.2778339572" rx=".2482487449" ry=".2482487449" style="fill: #3f3d56;"/>
  <rect x="265.9031597714" y="274.6657963682" width="2.1297439519" height="1.2778339572" rx=".2482487449" ry=".2482487449" style="fill: #3f3d56;"/>
  <rect x="261.6437029025" y="274.6657963682" width="2.1297439519" height="1.2778339572" rx=".2482487449" ry=".2482487449" style="fill: #3f3d56;"/>
  <rect x="257.3841529287" y="274.6657963682" width="2.1297439519" height="1.2778339572" rx=".2482487449" ry=".2482487449" style="fill: #3f3d56;"/>
  <rect x="253.1246960599" y="274.6657963682" width="2.1297439519" height="1.2778339572" rx=".2482487449" ry=".2482487449" style="fill: #3f3d56;"/>
  <rect x="281.6633705346" y="277.2214953175" width="17.0380136854" height="1.2778339572" rx=".2482487449" ry=".2482487449" style="fill: #3f3d56;"/>
  <rect x="262.1465935967" y="235.4272564985" width="3.0334823506" height="1.5875474656" rx=".7937659745" ry=".7937659745" style="fill: #fff;"/>
  <rect x="278.6837959317" y="235.4272564985" width="3.0334823506" height="1.5875474656" rx=".7937659746" ry=".7937659746" style="fill: #fff;"/>
  <rect x="283.3693319372" y="235.4272564985" width="3.0334823506" height="1.5875474656" rx=".7937659745" ry=".7937659745" style="fill: #fff;"/>
  <rect x="266.6447714745" y="235.2949233764" width="10.5743599652" height="1.5875474656" rx=".7937814908" ry=".7937814908" style="fill: #fff;"/>
  <rect x="288.6943745868" y="235.2949233764" width="10.5743599652" height="1.5875474656" rx=".7937814909" ry=".7937814909" style="fill: #fff;"/>
  <rect x="266.5565080122" y="239.0103216601" width="3.0334823506" height="1.5875474656" rx=".7937814914" ry=".7937814914" style="fill: #fff;"/>
  <rect x="283.0937103471" y="239.0103216601" width="3.0334823506" height="1.5875474656" rx=".7937814908" ry=".7937814908" style="fill: #fff;"/>
  <rect x="287.7792773878" y="239.0103216601" width="3.0334823506" height="1.5875474656" rx=".7937814912" ry=".7937814912" style="fill: #fff;"/>
  <rect x="271.0546858899" y="238.8779730198" width="10.5743599652" height="1.5875474656" rx=".7937814908" ry=".7937814908" style="fill: #fff;"/>
  <rect x="293.1042890022" y="238.8779730198" width="10.5743599652" height="1.5875474656" rx=".7937659737" ry=".7937659737" style="fill: #fff;"/>
  <rect x="270.9664534627" y="242.5933868209" width="3.0334823506" height="1.5875474656" rx=".7937814915" ry=".7937814915" style="fill: #fff;"/>
  <rect x="287.5036557977" y="242.5933868209" width="3.0334823506" height="1.5875474656" rx=".7937814909" ry=".7937814909" style="fill: #fff;"/>
  <rect x="292.1891918032" y="242.5933868209" width="3.0334823506" height="1.5875474656" rx=".7937814915" ry=".7937814915" style="fill: #fff;"/>
  <rect x="275.4646313405" y="242.4610381807" width="10.5743599652" height="1.5875474656" rx=".7937659748" ry=".7937659748" style="fill: #fff;"/>
  <rect x="297.5142034177" y="242.4610381807" width="10.5743599652" height="1.5875474656" rx=".7937659743" ry=".7937659743" style="fill: #fff;"/>
  <rect x="275.3763678782" y="246.1764519823" width="3.0334823506" height="1.5875474647" rx=".7937659739" ry=".7937659739" style="fill: #fff;"/>
  <rect x="291.9135702131" y="246.1764519823" width="3.0334823506" height="1.5875474647" rx=".7937814905" ry=".7937814905" style="fill: #fff;"/>
  <rect x="296.5991062187" y="246.1764519823" width="3.0334823506" height="1.5875474647" rx=".7937659739" ry=".7937659739" style="fill: #fff;"/>
  <rect x="279.8745457559" y="246.0441033415" width="10.5743599652" height="1.5875474656" rx=".7937659747" ry=".7937659747" style="fill: #fff;"/>
  <rect x="278.6837959317" y="260.4242199127" width="3.0334823506" height="1.5875474666" rx=".7937659749" ry=".7937659749" style="fill: #fff;"/>
  <rect x="283.3693319372" y="260.4242199127" width="3.0334823506" height="1.5875474666" rx=".7937659748" ry=".7937659748" style="fill: #fff;"/>
  <rect x="288.6943745868" y="260.5565530356" width="10.5743599652" height="1.5875474666" rx=".7937659738" ry=".7937659738" style="fill: #fff;"/>
  <rect x="262.1465935967" y="260.4242199127" width="3.0334823506" height="1.5875474666" rx=".7937659748" ry=".7937659748" style="fill: #fff;"/>
  <rect x="266.6447714745" y="260.5565530356" width="10.5743599652" height="1.5875474666" rx=".7937814908" ry=".7937814908" style="fill: #fff;"/>
  <rect x="266.5565080122" y="256.8411547528" width="3.0334823506" height="1.5875474647" rx=".7937659736" ry=".7937659736" style="fill: #fff;"/>
  <rect x="283.0937103471" y="256.8411547528" width="3.0334823506" height="1.5875474647" rx=".7937814909" ry=".7937814909" style="fill: #fff;"/>
  <rect x="287.7792773878" y="256.8411547528" width="3.0334823506" height="1.5875474647" rx=".7937659743" ry=".7937659743" style="fill: #fff;"/>
  <rect x="271.0546858899" y="256.9735033926" width="10.5743599652" height="1.5875474656" rx=".7937814908" ry=".7937814908" style="fill: #fff;"/>
  <rect x="270.9664534627" y="253.2580895916" width="3.0334823506" height="1.5875474647" rx=".793765975" ry=".793765975" style="fill: #fff;"/>
  <rect x="287.5036557977" y="253.2580895916" width="3.0334823506" height="1.5875474647" rx=".7937814903" ry=".7937814903" style="fill: #fff;"/>
  <rect x="292.1891918032" y="253.2580895916" width="3.0334823506" height="1.5875474647" rx=".793765974" ry=".793765974" style="fill: #fff;"/>
  <rect x="275.4646313405" y="253.3904382314" width="10.5743599652" height="1.5875474656" rx=".7937814907" ry=".7937814907" style="fill: #fff;"/>
  <rect x="275.3763678782" y="249.6750244307" width="3.0334823506" height="1.5875474647" rx=".7937659738" ry=".7937659738" style="fill: #fff;"/>
  <rect x="291.9135702131" y="249.6750244307" width="3.0334823506" height="1.5875474647" rx=".7937814906" ry=".7937814906" style="fill: #fff;"/>
  <rect x="296.5991062187" y="249.6750244307" width="3.0334823506" height="1.5875474647" rx=".7937659738" ry=".7937659738" style="fill: #fff;"/>
  <rect x="279.8745457559" y="249.807373071" width="10.5743599652" height="1.5875474647" rx=".7937814908" ry=".7937814908" style="fill: #fff;"/>
  <path d="m256.6988697013,302.4163221991l-6.7879381473-10.7296900029,21.3061913815-16.9845714627,8.7942870486-9.7429640876c3.6054879286-3.9944182038,9.7664265268-4.3097024893,13.7608447307-.7042145607,1.2544646229,1.1323109712,2.192838051,2.5714336804,2.722977451,4.1760348628h0c1.6477397942,4.9873511136-.9544805788,10.3831224651-5.8831445594,12.1988856004l-13.9062435768,5.1230980832-20.0069743283,16.6634215675Z" style="fill: #ffb6b6;"/>
  <path d="m97.4300133547,224.6189393935v52.1493987732h36.5340747791v-52.1493987732c.0012724339-.7699621499-.4999578893-1.450636684-1.2355953596-1.6779678574-.1689078378-.055785363-.3458692509-.0832823487-.5237306782-.0813581804h-33.010332968c-.9725739678-.0018931333-1.76252264.7849985941-1.7644157733,1.7575725619v.0017534759Zm14.2576991227,17.9187241346c.0200330747-2.1539201955,1.7823695049-3.8837785269,3.9362897004-3.8637299347,2.1256473356.0197692775,3.8439761747,1.7380825991,3.8637454522,3.8637299347v6.0508885857c-.0111105201,2.1539201955-1.7662158017,3.8910096755-3.9201359972,3.8798991554-2.1382164994-.0110174152-3.8688662227-1.741682656-3.8798991554-3.8798991554v-6.0508885857Z" style="fill: #2f2e41;"/>
  <path d="m97.3181788313,275.1005808152v5.0288448718c.0017069235.5421188994.4392690006.9819154945.981356865.9864466005h34.7950766483c.5428482213-.0027310776.9814499699-.4435828617.981356865-.9864466005v-5.0288448718h-36.7577903783Z" style="fill: #3f3d56;"/>
  <path d="m39.9568598836,146.0491116401v95.2173594149c.0020017557,2.5265881451,2.0497047579,4.5742756298,4.576292903,4.576292903h141.1023645092c2.5265881451-.0019862382,4.5743066648-2.0497047579,4.576292903-4.576292903v-95.2173594149c-.0060207847-2.5240898298-2.0521875557-4.5679910479-4.576292903-4.5712031675H44.5331527866c-2.5240898298.0032121197-4.5702721183,2.0471133377-4.576292903,4.5712031675Z" style="fill: #3f3d56;"/>
  <path d="m43.267050049,147.2338251624v92.858065289c.0023276229,1.3498040584,1.0959845359,2.4434454538,2.4457730768,2.4457730768h138.7481135663c1.3498040584-.0023276229,2.4434454538-1.0959690184,2.4457730768-2.4457730768v-92.858065289c-.0001241399-1.3515420168-1.0942310599-2.4479300073-2.4457730768-2.4508628123H45.7128231258c-1.3515264993.0029483224-2.4456334194,1.0993363129-2.4457730768,2.4508628123Z" style="fill: #fff;"/>
  <path d="m69.0163167141,280.7751393246c.2861269288.3587642819.720787236.5667296326,1.1796703392.5644020096h82.5461525682c.8388908238-.0010551891,1.5181067142-.6819624854,1.5170515251-1.5208377917-.0001241399-.1040602627-.0109553453-.2078101758-.0322918889-.3096669555l-1.2813564265-6.0864546642c-.1079085993-.5042872679-.4638952512-.9196283047-.9457597516-1.1033863768-.1717009853-.0673769253-.3545435257-.1018567797-.5389843672-.1016705699h-79.9885294506c-.1844408415-.0001862098-.3672833819.0342936446-.5389843672.1016705699-.4818800178.1837580721-.8378666697.5990680739-.9457597516,1.1033863768l-1.2813564265,6.0864546642c-.0923290431.4472139535.0215693059.9122109463.3101479975,1.2661027376Z" style="fill: #2f2e41;"/>
  <path d="m179.9581346039,157.57458489H50.1320635505c-.2851338097-.0063156169-.5111615143-.2426003799-.50483038-.5277341897.0061294071-.2762267726.2285880899-.4987009729.50483038-.50483038h129.8260710534c.2851493272.0063156169.5111459969.2426003799.5048458974.5277341896-.0061449246.2762267726-.2286036073.4987009729-.5048458974.50483038Z" style="fill: #3f3d56;"/>
  <ellipse cx="58.9694930903" cy="150.8129100882" rx="3.0256576583" ry="3.0930850154" style="fill: #3f3d56;"/>
  <ellipse cx="69.4217575947" cy="150.8129100882" rx="3.0256537789" ry="3.0930850154" style="fill: #3f3d56;"/>
  <ellipse cx="79.8740259785" cy="150.8129100882" rx="3.0256537789" ry="3.0930850154" style="fill: #3f3d56;"/>
  <path d="m173.6641180437,148.4847207634h-7.4237516287c-.3103186899.0072777011-.5559604971.2647438328-.5486672786.5750470052.0070449388.3000616315.2485901296.5416378573.5486672786.5486827961h7.4237516287c.3103186899-.004469036.5582570851-.2596385798.5537880491-.5699417522-.0043759311-.3040185905-.2497694586-.5494121179-.5537880491-.5537880491Z" style="fill: #3f3d56;"/>
  <path d="m173.6641180437,150.5948971652h-7.4237516287c-.3103186899.0069207989-.5562708469.2640765809-.549350048.5743797533.0067035541.300589226.2487763395.5426464939.549350048.549350048h7.4237516287c.3103186899-.0038328191.5587536447-.2584902858.554936343-.5688089757-.0037862666-.3049030872-.2500177384-.5511500764-.554936343-.5549208255Z" style="fill: #3f3d56;"/>
  <path d="m173.6641180437,152.705042532h-7.4237516287c-.3103186899.007277701-.5559604971.2647438328-.5486672786.5750470052.0070449388.3000616315.2485901296.5416378573.5486672786.5486827961h7.4237516287c.3103186899-.004469036.5582570851-.2596385798.5537880491-.5699417522-.0043759311-.3040185905-.2497694586-.5494121179-.5537880491-.5537880491Z" style="fill: #3f3d56;"/>
  <path d="m352.6375284292,277.3075397787c.4595969076,1.3381349087,1.7293307369,2.2275351502,3.1439668528,2.2022106127l13.4704815281-.3466606427c1.4265845803-.0277763004,2.6645075628-.9916915108,3.041116954-2.3679684007l1.9062300801-20.3834285446c.6763141204.3063772484,1.4125567727.4576727393,2.1548822796.4427759525,2.7122703855-.0680907296,4.8558249002-2.3220366415,4.7877341706-5.034307027-.0680907296-2.7122703855-2.3220366415-4.8558249002-5.034307027-4.7877341706-.296694337-.0009620842-.5926748696.0298246086-.8828208274.0918014486-.6380790343-.690341928-1.5383104812-1.0787756436-2.4783287629-1.069341012l-20.7206855906.5350739606c-.1718716776.0063311344-.342905411.0275900905-.5111149619.0634665187-1.7570449673.3275430996-2.91589084,2.0174283865-2.5883477404,3.7744733538.027031461.1449953915.0639320433.2879735097.1104534671.4279102006l3.6007395779,26.4517277499Zm21.9527119284-22.2798515733l1.3564455425-4.8573456138c.1543058832-.5611123026.157874905-1.1529802629.0103656808-1.7158925938.0658251767-.0001862098.1238916102-.0313763572.1896857518-.031531532,1.940213375-.0400351145,3.5455283618,1.5003857449,3.5855634763,3.4405991198.0398489047,1.9325787717-1.4887165952,3.5344488766-3.4210470872,3.5850979517-.601271557.0188071933-1.1963050844-.1267468276-1.7210133643-.4209273318Z" style="fill: #2f2e41;"/>
  <path d="m351.5147141596,246.6534284743c.4414414486,2.5241363823,5.4046473536,4.2985919692,11.372517388,3.9901664126,5.4878521149-.2528419208,9.9750125769-2.1798343975,10.7970979631-4.4636669878-.3042358353-.0899703852-.6206373798-.1321469128-.9378147986-.1250088692l-20.7206855906.5350739606c-.1718716776.0063311344-.342905411.0275590556-.5111149619.0634354838Z" style="fill: #3f3d56;"/>
  <path d="m363.9809660479,266.1067078585c.0272797408-.0068897639.0532249778-.0183106338.076749487-.0337660501l2.9253565066-1.9147646975c.1175604758-.0763770673.151109281-.2333519581.0747322137-.3509124339-.0193347879-.0297625386-.0446903604-.0551491461-.0745770389-.0742666892l-3.0405893594-1.9915452194c-.1173742659-.0769356968-.2748767513-.0441627659-.3518124481.0732115001s-.0441627658.2748767513.0732115001.3518124481l2.7157152674,1.7787384131-2.6003582747,1.7023613458c-.1174984058.0768115569-.1504885816.2343450772-.0736770247.3518434831.0594319723.0908703994.1699785443.1339779762.275218136.1073189349l.000031035-.000031035Z" style="fill: #1fdf64;"/>
  <path d="m359.3605414141,266.3197939796c.1361193893-.0344488195.2185172413-.1727406569.1840684218-.3088600462-.01691406-.0667872608-.0602078466-.1238295402-.1199501687-.1581231848l-2.6964735845-1.5459450845,2.6062549195-1.9358995138c.1126259152-.0837013208.1360883544-.2428176247.0523870336-.3554435399s-.2428176247-.1360883544-.3554435399-.0523870336l-2.9179701831,2.1674514435c-.1126879851.083515111-.1363366341.2426003799-.0528215232.355288365.0208865365.028179755.047390403.0517352991.077835711.0691769537l3.033203036,1.7388274385c.0572284893.0328350009.1249778342.0421144577.1889098775.025914202Z" style="fill: #1fdf64;"/>
  <path d="m363.6900131809,267.7846757159c.0246107332-.0061449246.0481042074-.0160761157.0696735132-.0294211539.1199812036-.0728080455.1581852548-.2291001669.0853772093-.3490813705-.0000620699-.0000931049-.0001241399-.0002172448-.0001862098-.0003103497l-4.1468619887-6.8178558608c-.0730873602-.1199812036-.2295967265-.15796801-.3495779301-.0848806498s-.15796801.2295967265-.0848806498.3495779301l4.1468619887,6.8178248258c.0580974685.0952152956.171437188.1415194745.2795940671.1141466288Z" style="fill: #1fdf64;"/>
  <rect x="106.4272923996" y="185.6423036573" width="25.7895267832" height="5.514790471" rx="1.6597503286" ry="1.6597503286" style="fill: #1fdf64;"/>
  <rect x="93.3296727897" y="196.6718845992" width="51.9847737617" height="5.514790471" rx="1.6597503286" ry="1.6597503286" style="fill: #e6e6e6;"/>
  <rect x="93.3296727897" y="207.7014500238" width="51.9847737617" height="5.514790471" rx="1.6597503286" ry="1.6597503286" style="fill: #e6e6e6;"/>
  <path d="m147.7800354581,244.6351621436l.1102051873.3480261815.0058035399.0116070797,3.3178868386,10.0871729675,3.8167585038,11.6242730848,7.1810581438,21.844834364.0696114433,3.3933018218v.0116070797l.5336463519,27.2973376452-1.4791267887,3.7007342592,1.6647469592,6.0673371211s-.7656638062-9.1713929993-4.8724286105-3.9045098886c-2.3260091179,2.9931058515-5.0464727362,6.0557610764-7.2797028039,8.927023626,3.2541254876,1.3167207777,6.5604362815,2.5077809518,9.9189478991,3.5731184523.7251010972.2320484893,1.4559436643.4524588639,2.1868172663.6728692385.1565714362.0464283188.3132049423.0927945677.4698384485.1391918516,11.1329584353,3.2923450562,22.6424331569,5.1423708012,34.2463472997,5.5047041049.6032267602.0174106196,1.1949085107.0289866643,1.7691486066.040593744.20303079.0058035399.4002580402.0116070797.5974542553.0116070797.6496550791.0058035399,1.2935066183.0115760447,1.9431616973.0115760447,1.3109172378-.000031035,2.6160309358-.0193347879,3.9153721289-.0580043636,9.6169310643-.2710284147,19.1777819334-1.5641005434,28.5212328202-3.8573677653-.0638079034-3.8573367304-.2377899592-8.3643595748-.4872180331-13.1788148566-.1160087272-2.3608303571-2.7204636182-4.9188569293-2.8770660894-7.3898924737-.1102051873-1.8561706695,2.2274110103-3.6021361516,2.1055987433-5.4873245203-.7888779656-11.6068624652-1.7749521465-7.1512956052-2.5058257485-15.3706597885-.0754149831-.8062885852-.1450264264-1.5777559313-.2088032949-2.3144020382-.4698384485-5.2784901905-.7946815055-8.5790284795-.7946815055-8.5790284795l3.1206906234-19.6695931424,4.9014773447-30.8820631773-.3770438807-.6206684148-.4234411646-.2088032949-25.8530010607-12.7959829535-1.4037118056-3.5963326118c-.8367649282-2.1196575859-2.8779040337-3.5179072363-5.1566779235-3.5325402258l-17.0303790821-.0695959258c-1.7931386403-.0080846103-3.4800445699.849396162-4.5302680388,2.3028259935l-4.6113934569,6.3863611208-30.505034814,19.55948106Z" style="fill: #3f3d56;"/>
  <path d="m166.1387579151,283.6901611853l-3.8573988003,8.2542164574-2.6334105204,5.6380924167-4.5302214863,23.718415653-2.2680357893,2.407196606-1.9431461799-8.5217379203-20.3379157574,4.5157436717c-.6670812161-3.7065377991-.1785752317.1254123238-.5904248341-3.9407277014.1160242446-.1160087272.2378054767-.2320484893.3596332612-.3480572164.3248275395-.3016288976.5974542553-.5858471756.591666233-.858458374-.2320329718-14.0256971859.4640349086-37.8949117702,6.2761869685-52.3556572004.910286778-2.3610786368,2.1105177865-4.5998484471,3.5731184523-6.6648224115.1160242446-.1566024712.2262294319-.3132670123.3364501367-.4698384485,2.6798388393-3.7529661179,4.3735879802-7.4478968372,6.7750275988-10.0755348528v-.0058035399c.0149433393-.0120415693.0285521747-.0256659222.0406092615-.040624779.0087363448-.0043448961.0165881928-.0102415409.0231986419-.0174106196l16.4967327302-8.7471759604.7076904776,19.8842310121.5046596876,14.2925358793.4755799184,13.3354173278Z" style="fill: #3f3d56;"/>
  <path d="m225.6228689809,286.0346050769l4.8183346534,10.3093833705,1.6817541241,3.5903118271,4.5289025,23.716181135,2.260556361,2.4013620311,1.9476617684-8.5196585771.9151592687-.1877305486,16.5043983684-3.4181918697,4.8104828054,15.2778652208c2.2351697535-3.7242587684,1.5421277829-8.5069652734-1.6582606499-11.44355644-.3285051838-.2972529665-.6022646761-.5866540849-.594474898-.8604135772.2737905273-16.4965775554-.7352495332-46.619028746-9.8478312596-59.0168174851-2.8941353243-3.934489672-4.6306041048-7.8533066828-7.15713018-10.5909947108-.0078208131-.0077897781-.0078208131-.0156105912-.0156105912-.0156105912l-6.1481211545-10.0669071304-.3754300622-.6179683722-.4223859755-.2111619528-11.2480050784,49.6539076705Z" style="fill: #3f3d56;"/>
  <circle id="a657ec4b-47ce-4d2a-9c58-81a811696ca9" cx="196.4338101053" cy="188.8830375543" r="22.6568489016" style="fill: #ffb6b6;"/>
  <path d="m227.0572123043,173.0573274817c-.3548228404-.3790921889-.8486202877-.5975318428-1.3678043424-.6050888586l.340670893-.9457597516c.3464433979-.9281008522-.1250709391-1.9613326737-1.0532028263-2.3077760716-.3066255282-.114472496-.6387618037-.1428539784-.9603772236-.0820719847l-1.2406850951.2389848056.1169397763-.8288199752c.1426988035-.9820861869-.5377429683-1.8938936785-1.5198446726-2.0366079995-.2983081555-.0433403391-.6027302007-.0109398278-.8852415552.0942221765-.5386119475.2119843796-1.1441973656.1690009427-1.6474604795-.1169552938-.5049700373-.2770491994-.8621205007-.7625913439-.9762671295-1.3271485284l-.4321930268-2.0847587593-.0457765844-.1118655583c-2.1051021838-3.5084881221-6.1525591556-6.0610525392-11.1051511-6.9966483373-4.4085178417-.8389839287-8.9288546893-.4118651199-13.2865062112-.0101639535-1.7288341773.1627163607-3.6813684364.3457606285-5.3085010089,1.3423866999-1.3830425139.8542376177-2.5525644171,2.5627283706-2.313564094,4.2864572949-4.2966367659-1.31695354-8.9034370469,1.3118638045-11.1864937629,4.6271437054-2.7051013069,3.945786402-3.1474738047,8.8881833579-3.2186680316,12.752596062-.1932237387,9.1424218525,1.6932370639,16.6221140191,5.5932468814,22.235704325.2847458726.4067753844.3559400995,1.2559387841.9203421091,1.5406846566l-.1169397763-.1881340032c.630506501.3152532505,1.2711924731.8237302397,1.0322231849,1.3678043424-.6864315215,1.5661022991,3.8745921751,5.0288448718,7.0881704712,6.1729180976,5.8627545825,2.0898329773,13.6576844821,1.9118784451,19.1390813227,1.1593269147l.1932237387-1.2966101155c1.9779829365-.2694921836,3.3712049213-.7830589083,3.7627421342-1.5864457236.6915522919-.5898351696,1.281371944-1.1186555833,1.7949386687-1.606789148l.0050897355-.0050897355c.010179471-.0101639535.030507378-.0254176425.0406868489-.0355971134,2.4762804547-2.3745943674,3.0508619353-3.7271139858,3.3101901654-5.7864395852.2491487591-2.0186542679-.1932237387-4.0678159138-.6457757075-5.9135898675,9.5288538124,1.4745801652-3.7525626633-10.14919636,5.1254567412-12.39667148.1018257447-.0313763572.2053894479-.0568405521.310163515-.0762684449.2593282301-.0610147559.5186564602-.1220295118.7678052193-.1932237387,1.2010224003-.3260068685,2.3509612358-.8171353081,3.4169504708-1.4593264763,2.4813701902-1.5101772787,3.3000106945-3.5135778576,4.5813826385-5.7712169312.3794646086-.6597259276.2867941808-1.4893993646-.2288518871-2.0491616459Z" style="fill: #2f2e41;"/>
  <path d="m276.5676142621,287.6477098419c-.0050897355.8898347311-.0152692065,2.1356095617-.0559250204,3.6762787009-.0051207705.2135826807-.010148436.4321930268-.0152692065.6559241435-.0661044914,2.8322205542-.1322089828,5.206799404-.2389692882,7.8457962195-.0050897355.1830442677-.010179471.3610298349-.020327907.5440741027-.1423884538,3.6813684364-.3660885355,7.9678257313-.7525360129,14.7560121584-.7169388994,12.5390288988-1.9678034655,1.7237444418-3.2237577671,6.1220517776-.0610147559.2186413812-.1271192473.4779696113-.1881340032.7830433908-.1901823114,1.1069243637-.5110839269,2.1873758958-.9559392225,3.2186680316-.6661036145.3966269484-1.3525351359.7779846903-2.0288182214,1.1593424322-1.9271166166,1.0728789989-3.8847406111,2.1050711488-5.8576338121,3.0864590488-1.1085071473.5491638381-2.2220419601,1.0881482053-3.3406975434,1.6067736305-.1779545322.0813426629-.350850364.1627163608-.5237461957.2389692882-5.7284352216,2.649641811-11.6321870028,4.9024394289-17.6695753755,6.7424098427-1.1796703392.3559400994-2.3542509429.7017007279-3.5440697181,1.0220437139-1.2406850951.3457606285-2.4813701902.67119335-3.7372934568.9762671295-9.343171572,2.2937327466-18.9037431264,3.5874566096-28.5204879809,3.8593540036-1.2966101155.0406868489-2.603399702.0559250204-3.915279024.0559250204-.650865443,0-1.29152038-.0050897355-1.942385823-.010179471-.1983134742,0-.3966269484-.0050897355-.5949093876-.010179471-.5745814806-.0152692065-1.1694908682-.0254176425-1.7694899913-.0406868489-11.6039762128-.3619298491-23.1134198994-2.2126693984-34.2459128101-5.5068144831l-.4728798758-.1372987183c-.7322081059-.2237311167-1.4593264763-.4423724978-2.1864448467-.6762830855-3.3559667499-1.0626995279-6.6627741033-2.2525493381-9.9203910253-3.5695183955-2.4864599257-1.001715807-4.9441038794-2.0763017293-7.3729163437-3.2237577671-.0221744878-.0059897497-.0429213669-.0163554305-.0610147559-.030507378-.5084769892-.2339105876-1.0220437139-.4779696113-1.5305207032-.7271183704-.0661044914-.0355971134-.1372832008-.0711942269-.2084774277-.1067913403-1.8966402736-.9254008096-3.7729216052-1.8949333501-5.6288439949-2.9084734816-1.5610280811-3.584787602-3.7576523987-4.2712191235-5.1203670057-7.4237516287-.3966114309-.9366044347-.6832659543-1.9160060964-.8542376177-2.9186529525,0-.010179471-.0050897355-.020327907-.0050897355-.0355971134.1423729363,1.8915195031-.6050888586-3.3559357149-.0050897355-.020327907-.0050897355-.0610147559-.0101639535-.1271192473-.015253689-.2034032097-.015253689-.1830442677-.0355660785-.4067753844-.0660734564-.6864315215-1.7440723488-17.0288894035-1.6322067905-36.5035518837-2.3898480563-52.5510844221-.0508818374-1.0372818854-.1034085283-2.0305251449-.1576266253-2.9796677084-.015253689-.3152532505-.0355971134-.6254167656-.0559560554-.9305215801.0355971134-.0915221339.0762684449-.1881340032.1220295118-.2796561371.0097449814-.0263797266.0216468933-.051890474.0355971134-.0762839624.0149898917-.031562567.0319815391-.0621320149.0508508024-.0915221339.0101639535-.0152692065.0254176425-.0355971134.0355971134-.0508352849.0074328759-.0174416545.0159209409-.0344177845.0254176425-.0508352849.0457610669-.0711942269.0966118694-.1474471543.1525368898-.2186413812.0254176425-.030507378.0457610669-.0559560554.0711942269-.0813426629.0175502769-.025976272.0380333588-.0498732008.0610147559-.0711942269.0155950737-.0244245233.034402267-.0466765986.0559250204-.0661044914.0203434245-.020327907.0406713314-.0457765844.0661044914-.0711631919.0108622404-.0160140458.0246728031-.0298246086.0406713314-.0406868489.0402213243-.046211074.0844616776-.0887600213.1322089828-.1271192473.1814149317-.166937117.3751972999-.3199084964.5796712161-.4576417043.0711631919-.0457765844.1474626718-.0915221339.2186413812-.1423884538.5124339482-.3065324232,1.0520079799-.5652709889,1.6118788835-.7728949548.1932237387-.0711942269.3864474774-.1372987183.5949249051-.2084619102.0762684449-.020327907.1474626718-.0457765844.2237311167-.0711942269.1118655583-.0355971134.2237311167-.0711942269.3406864105-.0966118694.5796712161-.1728958317,1.2050879817-.320342986,1.8813710671-.4576417043.0813581804-.0152692065.1677905788-.030507378.2542384946-.0508352849.1220295118-.0254176425.2491487591-.0457765844.3762680064-.0661044914.1728803142-.030507378.350850364-.0610147559.5288204137-.0915221339,1.5101772787-.2389692882,3.2237422496-.4169548554,5.1152772702-.5338946317.1779700497-.010179471.355924582-.020358942.5338946317-.030507378.2084774277-.010179471.4169548554-.020327907.630506501-.030507378.1779700497-.010179471.3610143175-.0152692065.5440741027-.020327907.1779700497-.010179471.3610143175-.0152692065.5491483207-.020327907.5135667247-.0152692065,1.0423716209-.030507378,1.5813559881-.0406868489,1.5355949212-.030507378,3.1525635402-.020327907,4.8508748221.0152692065.7881331263.020327907,1.5915354591.0406868489,2.4152656988.0762839624.0559560554,0,.1067758228.0050897355.1576266253.0050897355.7169544169.0254176425,1.4389830518.0559250204,2.1813706287.0966118694.5186409427.0254176425,1.0423716209.0508352849,1.5660867816.0813426629.4932233002.030507378.9915208185.0610147559,1.4949080722.0966118694.3915372129.020327907.7830433908.0508352849,1.1796703392.0762839624.3355811575.0254176425.67119335.0508352849,1.0067745075.0711942269l.4576417043.030507378c.2491487591.020327907.4982975182.0355971134.7525360129.0610147559.5593122742.0457765844,1.1186555833.0915221339,1.6881473284.1372987183.5644020096.0508352849,1.1389834903.1017016048,1.7135649709.1525368898s1.1542526967.1067913403,1.7338928779.1627163607c.0610147559.0050897355.1169397763.010179471.1728958317.0152692065.5288048962.0559560554,1.0576408274.1067913403,1.5915354591.1627163607.1220295118.010179471.2491487591.020327907.3711782709.0355971134.5090356187.0511456347,1.0280024287.1110120966,1.5416932932.1656026132.1576576602.0170071649.3144773762.0334867353.472600561.050773215.4023994533.0438213812.7990884716.0818081875,1.2043121073.1293848003.5338946317.0610147559,1.0779997693.1169397763,1.6067736306.1881340032.4118651199.0457765844.8237302397.0915221339,1.2355953596.1423884538.6457757075.0762839624,1.301699851.1576266253,1.9576239945.2440590236.2491487591.030507378.4982975182.0610147559.7474462774.0966118694,1.8711915961.2339105876,3.7627421342.4932077828,5.6847690153.7627154838,2.9135632171.4118651199,5.8729030185.8593273532,8.852570727,1.3423866999,2.9848195139.4830593468,5.9865220528.9932122245,9.0051386517,1.5305207032.7627154838.1372987183,1.5254309677.2745664016,2.293236187.4169548554.3457606285.0660734564.6915522919.1321469128,1.0372818854.1982824392.5898196521.1067913403,1.1796703392.2186413812,1.7694899913.330522457.5898196521.1118500408,1.1796703392.2237311167,1.7694899913.340670893.7017007279.1372987183,1.4084911913.2745664016,2.1101919193.4118651199,4.6220694874.9152523736,9.2186592624,1.8915195031,13.7034610665,2.913563217.7372978414.1677750613,1.4745956827.340670893,2.2068037886.5084769892,1.4644162118.340670893,2.9152701405.6864315215,4.3525617863,1.0372818854.3966269484.0915221339.7881331263.1881340032,1.1796703392.2847458726.9762671295.2440590236,1.952565294.4881490822,2.9135632171.7372978414l.1678060962.0457765844c.7067904634.1728958317,1.3983117204.350850364,2.0898329773.5338946317,1.632222308.4271032914,3.2372890151.8593273532,4.8152621911,1.2966101155,1.0474613564.2898356081,2.0830673533.5830540281,3.1067869558.8796552602,1.5305207032.4423724978,3.0305340284.8898347311,4.4898605046,1.3423866999.3610298349.1118500408.7220286349.2237311167,1.0779687344.330522457,1.0677892634.330522457,2.1203403553.6661036145,3.1423840692,1.001684772.8135507688.2644179656,1.6067736306.5338946317,2.3898480563.8034023328.7830433908.2694766661,1.5508486101.5389843672,2.303415658.8084920683.4830593468.1728958317.961028958.3559400994,1.4389985693.5288048962.6864315215.2542384946,1.3627146069.5084769892,2.0237284859.7627154838.2034032097.0762839624.4016856489.1576266253.5999991231.2339105876.1271192473.0559250204.2491487591.1017016048.3711782709.1525368898.2389692882.0966118694.4830593468.1881340032.7169388994.2847458726.2389692881.0915221339.4728798758.1881340032.7067904634.2898356081.2288208522.0915221339.4627004048.1881340032.6864315215.2847458726.2288208522.0915221339.4525519688.1881340032.6762830855.2898356081.1881340032.0762839624.3711782709.1576266253.5491638382.2389692882.3610298349.1576266253.7220286349.3152532505,1.0728789989.4779696113.1728958317.0813426629.3457606285.1576266253.5186564602.2389692881l.3966269484.1830442677c.0559250204.030507378.1118500408.0559250204.1678060962.0813426629.1271192473.0610147559.2593282301.1271192473.3864474774.1881340032.2948943086.1372987183.5847609516.2847458726.8695068242.4220445908.3813577419.1932237387.7525360129.3864474774,1.1084761123.5745814806.3610298349.1931927037.7118801989.3864474774,1.0474613564.5745504456.0559250204.030507378.1067913403.0610457909.1627163607.0915531688.0762839624.040655814.1525368898.0864323984.2288208521.1271192473.2593282301.1474471543.5084769892.300015079.7576257483.4474311983.4881490822.300015079.9508494871.5949093876,1.3830425139.8898347311.0966118693.0661044914.1881340032.1322089828.2847458726.1932237387.320342986.2288208521.6254167656.4525519688.9101626381.6813728209q0,.0050897355.0050897355.0050897355c.0966118694.0711942269.1881340032.1474471543.2796561371.2186413812.0762839624.0711942269.1576266253.1322089828.2339105876.2034032097.2644179656.2288208521.5084769892.4474311983.7322081059.67119335.0750115285.0690528138.1462988603.1420470691.2135516457.2186413812.0296073637.0245176283.0568250346.0517352991.0813426629.0813426629.1017016048.1017016048.1932237387.2034032097.2796561371.3050737795.0134071081.0139967726.0253555725.029328049.0355971134.0457765844.1220295118.1423884538.2339105876.2847458726.340670893.4271343263.0508352849.0711942269.1067913403.1423884538.1525368898.2135516457.0610147559.0864323984.1220295118.1779545322.1728958317.2644179656.0457765844.0711942269.0864323984.1474471543.1271192473.2186724161.1079085993.1832615125.1997721179.3754921321.2745664016.5745504456.0571664193.1349710953.1030671436.2744422617.1372987183.4169548554.0385454358.1350642003.0674700302.2727043032.0865565383.4118651199Z" style="fill: #2f2e41;"/>
  <path d="m276.5676142621,287.6477098419c-.0050897355.8898347311-.0152692065,2.1356095617-.0559250204,3.6762787009-.0050897355.2135516457-.0152692065.4321930268-.020327907.6559241435-.0508352849,2.1610272042-.1271192473,4.8305313976-.2339105876,7.8457962195-.0050897355.1830442677-.010179471.3610298349-.020327907.5440741027-.1423884538,3.6813684364-.3660885355,7.9678257313-.7525360129,14.7560121584-.7169388994,12.5390288988-1.9678034655,1.7237444418-3.2237577671,6.1220517776-3.4881446977-2.1457579977-7.3119015878-4.3932486353-11.4000454086-6.7017229937-.7372668064-.4169548554-1.4813613067-.8355855992-2.2322214311-1.2559232666-8.1763186765-4.5610236965-17.3085455405-9.3407508442-26.8424890884-14.0746393375-.3762680064-.1881340032-.7576257483-.3762680064-1.1338937548-.5593122742-21.8390928941-10.79495655-45.6764966316-21.2950187914-64.9884427511-28.3018155647-3.7271450208-1.3525351359-7.2864839453-2.5728923241-10.6322557067-3.6458023579-7.0474836222-2.2525493381-13.1390435394-3.8288466256-17.8272020007-4.5101884116-4.8813822-.7118801989-8.2525871214-.4576417043-9.6153017283,1.011864243-.0508663199-1.0372818854-.1033930108-2.0305251449-.1576266253-2.9796677084-.020358942-.3152532505-.0407023664-.6254167655-.0610147559-.9305215801.0313763572-.0837013208.072156311-.16358534.111632796-.2441521286.005648365-.0117622546.0096673939-.0238969288.0154864513-.0355040085.0097449814-.0263797266.0216468933-.051890474.0355971134-.0762839624.0149898917-.031562567.0319815391-.0621320149.0508508024-.0915221339.0165416403-.0360316031.0369936872-.0701390378.0610147559-.1017016048.0457610669-.0711942269.0966118694-.1474471543.1525368898-.2186413812.041136856-.0533180827.0852685869-.1042775076.1322089828-.1525679247.0155950737-.0244245233.034402267-.0466765986.0559250204-.0661044914.0203434245-.020327907.0406713314-.0457765844.0661044914-.0711631919.0108622404-.0160140458.0246728031-.0298246086.0406713314-.0406868489.0402213243-.046211074.0844616776-.0887600213.1322089828-.1271192473.1814149317-.166937117.3751972999-.3199084964.5796712161-.4576417043.0711631919-.0457765844.1474626718-.0915221339.2186413812-.1423884538.5124339482-.3065324232,1.0520079799-.5652709889,1.6118788835-.7728949548.1932237387-.0711942269.3864474774-.1372987183.5949249051-.2084619102.0762684449-.020327907.1474626718-.0457765844.2237311167-.0711942269.1118655583-.0355971134.2237311167-.0711942269.3406864105-.0966118694.5796712161-.1728958317,1.2050879817-.320342986,1.8813710671-.4576417043.2033876922-.0406868489.4169548554-.0813426629.630506501-.1169397763.1728803142-.030507378.350850364-.0610147559.5288204137-.0915221339,1.5101772787-.2389692882,3.2237422496-.4169548554,5.1152772702-.5338946317.1779700497-.010179471.355924582-.020358942.5338946317-.030507378.2084774277-.010179471.4169548554-.020327907.630506501-.030507378.1779700497-.010179471.3610143175-.0152692065.5440741027-.020327907.1779700497-.010179471.3610143175-.0152692065.5491483207-.020327907.5135667247-.0152692065,1.0423716209-.030507378,1.5813559881-.0406868489,1.5355949212-.0254176425,3.1525635402-.0152692065,4.8508748221.020327907.7881331263.0152692065,1.5915354591.0406868489,2.4152656988.0762839624.0508508024,0,.1067758228.0050897355.1576266253.0050897355.7169544169.020327907,1.4440727873.0559250204,2.1813706287.0915221339.5186409427.0254176425,1.0423716209.0508352849,1.5660867816.0813426629.4932233002.030507378.9915208185.0610147559,1.4949080722.0966118693.3915372129.020327907.7830433908.0508352849,1.1796703392.0762839624.3355811575.0254176425.67119335.0508352849,1.0067745075.0711942269.4016856489.030507378.8034023328.0610147559,1.2101777171.0915221339.5593122742.0457765844,1.1186555833.0915221339,1.6881473284.1372987183.5644020096.0508352849,1.1389834903.1017016048,1.7135649709.1525368898s1.1542526967.1067913403,1.7338928779.1627163607c.0610147559.0050897355.1169397763.010179471.1728958317.0152692065.5288048962.0559560554,1.0576408274.1067913403,1.5915354591.1627163608,2.9593398015.300015079,6.0051120013.650834408,9.1373165995,1.0525510919,1.8711915961.2389692881,3.7661249462.4949147062,5.6847690153.7678052193,2.9135632171.4118651199,5.8729030185.8593273532,8.852570727,1.3372969645,2.9847884789.4830593467,5.9864910178.9932432595,9.0051386517,1.5305207032.7627154838.1372987183,1.5254309677.2745664016,2.293236187.4169548554.9355802806.1728647968,1.8711915961.3491434405,2.8068029117.5288048962.5898196521.1118500408,1.1796703392.2237311167,1.7694899913.340670893.7017007279.1372987183,1.4084911913.2745664016,2.1101919193.4118651199,4.6220694874.9152523736,9.2186592624,1.8915195031,13.7034610665,2.9135632171.7372978414.1677750613,1.4745956827.340670893,2.2068037886.5084769892,1.4644162118.340701928,2.9152701405.6864315215,4.3525617863,1.0372818854.3966269484.0966118694.7881331263.1932237387,1.1796703392.2898356081.981356865.2440590236,1.952534259.4881180473,2.9135632171.7322081059v.0050897355c.0559250204.010179471.1118500408.0254176425.1678060962.0406868489.7017007279.1779545322,1.3983117204.3559400995,2.0898329773.5389843672,1.632222308.4271343263,3.2372890151.8576204297,4.8152621911,1.29152038,1.0474613564.2948943086,2.0847432418.5847609516,3.1067869558.8796552602,1.5305207032.4474622333,3.0305340284.8949244666,4.4898605046,1.3423866999.3610298349.1118500408.7220286349.2237311167,1.0779687344.330522457,1.0677892634.3356121925,2.1152506198.6694864265,3.1423840692,1.001684772.8135507688.2644179656,1.6067736306.5338946317,2.3898480563.8034023328.7830433908.2694766661,1.5508486101.5389843672,2.303415658.8084920682.4881490823.1728958317.9661186935.350850364,1.4389985693.5237461957.6915212569.2542384946,1.3627146069.5084769892,2.0237284859.7678052193.2034032097.0762839624.4016856489.1576266253.5999991231.2339105876.3711782709.1423884538.7322081059.2898356081,1.0881482053.4372827623.2389692882.0915221339.4728798758.1881340032.7067904634.2898356081.2288208521.0915221339.4627004048.1881340032.6864315215.2847458726.2288208521.0915221339.4525519688.1881340032.6762830855.2898356081.1881340032.0762839624.3711782709.1576266253.5491638382.2389692882.3610298349.1576266253.7220286349.3152532505,1.0728789989.4779696113.1728958317.0813426629.3457606285.1576266253.5186564602.2389692881l.3966269484.1830442677c.0559250204.030507378.1118500408.0559250204.1678060962.0813426629.4321930269.2034032097.8491478822.4067753844,1.2559232666.6101785941.3813577419.1932237387.7525360129.3864474774,1.1084761123.5745814806.4220445908.2237000817.8237302397.4423724978,1.2101777171.6661036145.0762839624.040655814.1525368898.0864323984.2288208521.1271192473.2593282301.1474471543.5084769892.300015079.7576257483.4474311983.4881490822.300015079.9508494871.5949093876,1.3830425139.8898347311.4271343263.2949253435.8237302397.5847609516,1.1949085107.8745655247q0,.0050897355.0050897355.0050897355c.1779545322.1423884538.350850364.2847458726.5135667247.4220445908.2644179656.2288208521.5084769892.4474311983.7322081059.67119335.0750115285.0690528138.1462988603.1420470691.2135516457.2186413812.0296073637.0245176283.0568250346.0517352991.0813426629.0813426629.1067913403.1169397763.2135516457.2339105876.3152842855.350850364.1220295118.1423884538.2339105876.2847458726.340670893.4271343263.0508352849.0711942269.1067913403.1423884538.1525368898.2135516457.0610147559.0864323984.1220295118.1779545322.1728958317.2644179656.0457765844.0711942269.0864323984.1474471543.1271192473.2186724161.1079085993.1832615125.1997721179.3754921321.2745664016.5745504457.0556457057.1355297248.101515395.2748767513.1372987183.4169548554.0384833659.1350952352.0673769253.2727353382.0864013634.4118961548Z" style="isolation: isolate; opacity: .200000003;"/>
</svg>