<?xml version="1.0" encoding="UTF-8"?>
<svg id="Layer_1" data-name="Layer 1" xmlns="http://www.w3.org/2000/svg" viewBox="0 0 649 599.76">
  <path d="m591.27,480.5l-52.68-78.25s79.78,27.85,70.73,78.25h-18.05Z" style="fill: #e5e5e5;"/>
  <path d="m45.16,481.02l-2-.04c.77-22.24,3.15-44.39,7.1-66.29,8.65-46.88,23.03-77.67,42.74-91.51l1.15,1.64c-46.05,32.33-48.97,154.97-48.99,156.2Z" style="fill: #e5e5e5;"/>
  <path d="m70.16,480.54l-2-.04c.04-2.21,1.29-54.41,21.84-68.84l1.15,1.64c-19.72,13.85-20.98,66.71-20.99,67.24Z" style="fill: #e5e5e5;"/>
  <circle cx="105.53" cy="315" r="10" style="fill: #87ff63;"/>
  <circle cx="100.58" cy="401" r="10" style="fill: #87ff63;"/>
  <path d="m65.5,331c1.88,12-3.02,22.74-3.02,22.74,0,0-7.95-8.73-9.82-20.73s3.02-22.74,3.02-22.74c0,0,7.95,8.73,9.82,20.73Z" style="fill: #e5e5e5;"/>
  <path d="m98.19,360.15c-11.49,3.94-22.92.99-22.92.99,0,0,7.21-9.34,18.7-13.29s22.92-.99,22.92-.99c0,0-7.21,9.34-18.7,13.29Z" style="fill: #e5e5e5;"/>
  <path d="m98.56,436.31c-5.2,1.63-10.74,1.87-16.06.69,6.9-8.79,18.33-12.71,29.17-10.01-3.48,4.2-8,7.41-13.11,9.31Z" style="fill: #e5e5e5;"/>
  <path d="m648,482.5H1c-.55,0-1-.45-1-1s.45-1,1-1h647c.55,0,1,.45,1,1s-.45,1-1,1Z" style="fill: #cbcbcb;"/>
  <polygon points="409.79 528.6 401.61 549.9 315.59 528.47 327.66 497.05 409.79 528.6" style="fill: #ffb7b7;"/>
  <path d="m432.52,531.1l-26.38,68.66-.87-.33c-14.76-5.67-22.13-22.23-16.46-36.99h0s16.11-41.94,16.11-41.94l27.59,10.6Z" style="fill: #2f2e41;"/>
  <path d="m279.07,261.99l-37.49,3.51-1.86,111.54c1.03,11.37,10.96,19.83,22.35,19.05l23.77-1.64-6.77-132.46Z" style="fill: #e5e5e5;"/>
  <path d="m411.24,256.5l-25.65-.33-1.52,132.54h0c22.79.76,41.87-17.1,42.63-39.88.03-.99.03-1.98,0-2.97l-15.46-89.35Z" style="fill: #e5e5e5;"/>
  <path d="m262.4,435.79c-.61,3.84-1.49,7.64-2.64,11.36-1.29,3.64-3.29,7.01-4.48,10.68-3.77,11.72,1.46,24.79,9.81,33.84,7.24,7.81,16.59,13.37,26.92,15.99,7.54,1.9,15.37,2.17,23.14,2.43,21.5.73,43.56,1.38,63.93-5.53,6.44-2.24,12.66-5.06,18.57-8.44,1.87-.89,3.52-2.19,4.82-3.79,1.55-2.21,1.75-5.08,1.74-7.79-.05-9.12-1.89-18.18-1.46-27.29.24-5.04,1.19-10.08.72-15.11-1.32-11.7-9.84-21.31-21.3-24.01-5.78-1.24-11.78-.56-17.66,0-15.27,1.47-30.61,2.15-45.96,2.05-15.68-.1-31.26-2.49-46.86-2.74-4.61-.07-4.52,1.35-5.99,5.81-1.35,4.11-2.46,8.3-3.31,12.54Z" style="fill: #2f2e41;"/>
  <path d="m201.09,428.38c-4.22-1.06-8.56-1.52-12.9-1.37-17.76.98-31.36,16.18-30.38,33.94.07,1.35.23,2.7.48,4.03,1.05,4.87,2.77,9.57,5.11,13.97,3.42,6.95,7.53,13.87,13.86,18.33,3.71,2.6,8,4.23,12.23,5.82l33.37,12.57c4.91,1.85,9.82,3.7,14.78,5.41,24.91,8.61,50.87,13.77,77.18,15.34,8.01.48,16.15.61,23.96-1.21,1.85-.43,3.83-1.08,4.91-2.65.64-1.11,1.01-2.35,1.1-3.62l2.05-14.37c.29-2.02.57-4.15-.17-6.06-.94-2.42-3.3-3.94-5.55-5.23-21.94-12.6-47.55-19.55-66.02-36.84-4.35-4.07-7.98-10.52-13.27-13.29-5.99-3.14-13.04-4.93-19.23-7.82-13.53-6.32-26.84-13.58-41.51-16.95Z" style="fill: #2f2e41;"/>
  <path d="m234.41,447.76c11.79,3.7,61.59,29.3,70.13,38.24-1.14.41-39.96-21.34-41.13-21.69-10.59-3.18-21.23-6.38-31.29-11.03-2.02-.94-13.14-5.33-12.64-7.88.57-2.88,12.83,1.71,14.93,2.36Z" style="isolation: isolate; opacity: .1;"/>
  <path d="m305.59,224.5l-31.76,24.11s-33.51,1.05-32.38,22.47,14.54,122.84,14.54,122.84l2.91,34.9,55.19,15.73c29.82,8.5,61.33,9.17,91.49,1.96h0l-6.56-35.01s26.56-158.99,10.56-165.99-26-5-26-5l-20.06-17.5-57.94,1.5Z" style="fill: #e5e5e5;"/>
  <path d="m399.59,185.56c0,31.3-28.94,26.57-64.65,26.57s-64.65,4.73-64.65-26.57,14.14-86.78,64.65-86.78c52.25,0,64.65,55.48,64.65,86.78Z" style="fill: #2f2e41;"/>
  <circle cx="337.79" cy="165.4" r="43.5" transform="translate(-18.02 287.3) rotate(-45)" style="fill: #ffb7b7;"/>
  <path d="m284.46,164.3h17.21l7.59-21.25,1.52,21.25h8.22l4.43-12.4.89,12.4h61.1c0-25.43-20.62-46.05-46.05-46.05h-8.86c-25.43,0-46.05,20.62-46.05,46.05h0Z" style="fill: #2f2e41;"/>
  <rect x="291.59" y="229.5" width="87" height="105" style="fill: #87ff63;"/>
  <polygon points="296.38 527.6 304.56 548.9 390.59 527.47 378.51 496.05 296.38 527.6" style="fill: #ffb7b7;"/>
  <path d="m301.25,519.5l16.11,41.93h0c5.67,14.76-1.7,31.32-16.46,36.99l-.87.33-26.38-68.66,27.59-10.6Z" style="fill: #2f2e41;"/>
  <path d="m468.33,420.23c6.91-1.73,14.07-2.22,21.16-1.45,5.66.62,11.48,2.2,15.61,6.11,5.03,4.76,6.64,12.13,6.78,19.06.22,13.79-4.35,27.23-12.94,38.03-2.1,2.73-4.59,5.13-7.4,7.12-3.03,1.89-6.26,3.45-9.63,4.64l-74.73,29.47c-19.66,7.75-39.39,15.53-59.89,20.64-2.32,1.12-5.11.15-6.23-2.17-.02-.03-.03-.07-.05-.1-6.55-9.35-12.04-19.4-16.38-29.96-.71-.86-.58-2.13.28-2.84.18-.15.39-.26.61-.34l52.86-30.37c3.79-2.18,7.61-4.38,10.76-7.41,2.28-2.21,4.15-4.82,5.52-7.69,1.1-2.29,1.2-7.69,2.6-9.38,1.37-1.66,6.06-1.79,8.22-2.44,3.05-.94,6.04-2.07,8.95-3.38,11.82-5.29,22.35-12.97,33.69-19.17,6.36-3.63,13.15-6.45,20.22-8.37Z" style="fill: #2f2e41;"/>
  <path d="m438.37,442.91c-9.08,6.82-20.84,13.09-29.84,20.09-3.07,2.39-54.28,31.18-55,35,8.4,1.41,61.88-36,69.54-39.74s14.44-9,21.16-14.23c1.71-1.33,8.97-5.34,4.06-6.82-2.77-.84-7.87,4.33-9.91,5.7Z" style="isolation: isolate; opacity: .1;"/>
  <circle cx="601.59" cy="148.47" r="31.25" style="fill: #f1f1f1;"/>
  <circle cx="543.75" cy="163.39" r="21.92" style="fill: #f1f1f1;"/>
  <circle cx="142.21" cy="153.44" r="17.58" style="fill: #f1f1f1;"/>
  <circle cx="171.15" cy="170.5" r="12.33" style="fill: #f1f1f1;"/>
  <circle cx="341.65" cy="13.44" r="13.44" style="fill: #f1f1f1;"/>
  <path d="m261.59,296.5l1.2-9.27s44.8,3.27,37.8,14.27-24,12-24,12l-15-17Z" style="fill: #2f2e41; isolation: isolate; opacity: .17;"/>
  <path d="m295.4,256.19c5.2.57,9.86,3.44,12.72,7.81h0c5.28,8.08,3,18.91-5.08,24.19-.2.13-.4.26-.61.38-.74.44-1.52.82-2.32,1.14l-27.54,84.23c-3.34,6.96-11.7,9.9-18.67,6.55s-9.9-11.7-6.55-18.67c.02-.04.04-.09.07-.13l29.28-83.29c-2.68-9.26,2.65-18.94,11.91-21.62,2.2-.64,4.5-.83,6.77-.58Z" style="fill: #ffb7b7;"/>
  <path d="m262,288.02s15.78,26.96,38.59,13.48l-22.11,84.6h-18.63l-19.27-3.6,5.39-34.95,16.02-59.53Z" style="fill: #e5e5e5;"/>
  <path d="m374.66,306.45l-13.07-17.94s6.28-18.61,30.64-11.81c0,0,15.5,34.7-17.57,29.75Z" style="fill: #e5e5e5;"/>
  <path d="m374.66,306.45l-13.07-17.94s6.28-18.61,30.64-11.81c0,0,15.5,34.7-17.57,29.75Z" style="fill: #2f2e41; isolation: isolate; opacity: .17;"/>
  <path d="m378.12,243.75c7.79,3.62,11.76,12.4,9.33,20.65l29.28,83.29c3.42,6.93.58,15.32-6.35,18.74-6.93,3.42-15.32.58-18.74-6.35-.02-.05-.04-.09-.07-.14l-27.54-84.23c-.8-.32-1.57-.7-2.32-1.14-8.29-4.94-11-15.67-6.06-23.96.12-.2.25-.41.38-.61h0c2.86-4.38,7.53-7.24,12.72-7.81,3.2-.36,6.44.18,9.35,1.56Z" style="fill: #ffb7b7;"/>
  <path d="m361.59,288.5s21.57,13.09,30.64-11.81l30.39,80.01-9.03,15.79-1.31.11c-10.93.91-21.62-3.61-28.58-12.09h0c-7-8.52-11.76-18.65-13.86-29.47l-8.25-42.55Z" style="fill: #e5e5e5;"/>
</svg>