<?xml version="1.0" encoding="UTF-8"?>
<svg id="Layer_1" data-name="Layer 1" xmlns="http://www.w3.org/2000/svg" viewBox="0 0 801.58 647.18">
  <g id="Group_6" data-name="Group 6">
    <path id="Path_80-235" data-name="Path 80-235" d="m769.82,0h-240.62c-23.92,0-44.64,16.57-49.9,39.9l-121.58,539.27c-5.02,22.27,8.96,44.4,31.24,49.42,2.32.52,4.68.85,7.06.96l247.35,12.19c27.4,1.35,51.55-17.83,56.43-44.83l68.97-381.27,5.13,1.47,13.2-72.27-5.28-1.32,19.25-106.43c3.1-17.12-8.27-33.5-25.38-36.6-1.94-.35-3.9-.52-5.87-.5h0Z" style="fill: #3f3d56;"/>
    <path id="Path_81-236" data-name="Path 81-236" d="m560.88,11.63h-28.08c-16.62,0-30.99,11.58-34.54,27.81l-116.7,534.87c-2.58,11.82,4.91,23.49,16.73,26.07,1.07.23,2.15.39,3.24.46l246.55,16.16c14.4.94,27.21-9.07,29.77-23.28L777.43,40.88c2.43-13.5-6.54-26.42-20.05-28.86-1.45-.26-2.93-.39-4.4-.39h-26.64c-5.3,0-9.94,3.56-11.32,8.68h0c-1.22,4.52-5.32,7.66-10,7.66h-126.49c-9.25,0-16.94-7.12-17.65-16.34Z" style="fill: #fff;"/>
    <path id="Path_93-237" data-name="Path 93-237" d="m697.17,385.54c.99.03,1.86-.66,2.04-1.64l54.52-300.92c.11-.58-.05-1.17-.42-1.63-.37-.45-.92-.72-1.5-.73l-248.06-2.93h-.02c-.93,0-1.73.66-1.92,1.56l-64.28,291.15c-.13.57,0,1.18.36,1.65.35.47.89.76,1.47.79l257.81,12.7Z" style="fill: #e6e6e6;"/>
    <path id="Path_94-238" data-name="Path 94-238" d="m481.91,405c-.46,0-.87.32-.97.77l-2.32,9.96c-.13.54.21,1.08.75,1.2.05.01.1.02.15.02l131.23,9.33c.5.03.95-.31,1.05-.81l2.23-11.52c.1-.54-.25-1.07-.79-1.17-.04,0-.09-.01-.13-.02l-131.14-7.77h-.06Z" style="fill: #e6e6e6;"/>
    <path id="Path_95-239" data-name="Path 95-239" d="m641.35,463.26c.49.04.93-.28,1.05-.76l2.84-11.54c.13-.54-.2-1.08-.73-1.21-.06-.01-.11-.02-.17-.03l-167.59-11.72c-.47-.04-.9.26-1.03.71l-2.96,9.97c-.16.53.15,1.09.68,1.24.07.02.13.03.2.04l167.7,13.29Z" style="fill: #e6e6e6;"/>
    <path id="Path_96-240" data-name="Path 96-240" d="m632.35,500.26c.49.04.93-.28,1.05-.76l2.84-11.54c.13-.54-.2-1.08-.73-1.21-.06-.01-.11-.02-.17-.03l-167.59-11.72c-.47-.04-.9.26-1.03.71l-2.96,9.97c-.16.53.15,1.09.68,1.24.07.02.13.03.2.04l167.7,13.29Z" style="fill: #e6e6e6;"/>
    <path id="Path_79-241" data-name="Path 79-241" d="m341.78,630.52c0,8.37-76.61,9.26-170.89,15.15-94.2,5.89-170.89-6.78-170.89-15.15s77.05-25.21,170.89-15.15c94.28,10.1,170.89,6.78,170.89,15.15Z" style="fill: #e6e6e6;"/>
    <path id="Path_97-242" data-name="Path 97-242" d="m555.16,563.51c.49.05.95-.27,1.06-.75l6.01-24.05c.13-.54-.19-1.08-.73-1.21-.05-.01-.11-.02-.16-.03l-102.92-8.66c-.5-.03-.94.3-1.06.78l-5.13,23.08c-.12.54.22,1.07.76,1.19.04,0,.08.02.12.02l102.03,9.63Z" style="fill: #78ff63;"/>
    <path id="Path_111-243" data-name="Path 111-243" d="m139.61,465.51c4.89-3.35,6.14-10.04,2.79-14.93-.36-.52-.76-1.01-1.21-1.47l4.17-93.02-21.21,2.38,1.23,90.98c-3.97,4.45-3.57,11.28.88,15.25,3.73,3.32,9.25,3.65,13.35.8h0Z" style="fill: #a0616a;"/>
    <path id="Path_112-244" data-name="Path 112-244" d="m178.31,622.97l12.07,2.12,11.93-45.56-15.82-3.13-8.19,46.57Z" style="fill: #a0616a;"/>
    <path id="Path_113-245" data-name="Path 113-245" d="m211.71,640.39l-37.95-6.67,2.58-14.66,23.29,4.09c8.1,1.42,13.51,9.14,12.08,17.24h0Z" style="fill: #2f2e41;"/>
    <path id="Path_114-246" data-name="Path 114-246" d="m145.17,629.01h12.26l5.83-47.29h-18.09v47.29Z" style="fill: #a0616a;"/>
    <path id="Path_115-247" data-name="Path 115-247" d="m181.07,640.4h-38.53s0-14.89,0-14.89h23.64c8.22,0,14.89,6.66,14.89,14.89h0Z" style="fill: #2f2e41;"/>
    <path id="Path_116-248" data-name="Path 116-248" d="m196.32,612.06c-.19,0-.38-.01-.57-.03l-14.43-1.19c-2.68-.31-4.59-2.74-4.28-5.42,0-.08.02-.16.03-.24l14.33-70.68-9-47.47c-.17-.88-1.02-1.46-1.9-1.29-.71.14-1.25.73-1.32,1.45l-13.26,120.63c-.26,2.64-2.56,4.6-5.21,4.44l-13.6-.51c-2.47-.17-4.41-2.16-4.54-4.63l1.09-145.77,70.48-8.81,4.92,76.04-.02.08-17.99,79.67c-.53,2.19-2.49,3.73-4.74,3.73Z" style="fill: #2f2e41;"/>
    <circle id="Ellipse_16" data-name="Ellipse 16" cx="166.91" cy="271.26" r="24.56" style="fill: #a0616a;"/>
    <path id="Path_117-249" data-name="Path 117-249" d="m190.05,472.44c-3.84.02-7.61-1.05-10.86-3.11-11.9-7.44-25.41-4.48-32.41-2.06-1.41.49-2.96.32-4.22-.48-1.25-.78-2.06-2.09-2.22-3.55l-12.72-113.62c-2.13-19.04,9.34-36.94,27.27-42.56h0c.67-.21,1.36-.41,2.05-.6,11.3-3.06,23.37-.97,32.97,5.72,9.78,6.76,16.07,17.51,17.17,29.35l10.71,114.39c.15,1.5-.42,2.98-1.53,4.01-3.76,3.47-14.65,12.51-26.22,12.51Z" style="fill: #78ff63;"/>
    <path id="Path_118-250" data-name="Path 118-250" d="m151.31,373.98l-28.7-3.16c-3.14-.35-5.4-3.17-5.06-6.31.03-.28.08-.56.15-.83l7.31-27.85c.9-8.72,8.7-15.07,17.42-14.17,8.72.9,15.07,8.7,14.17,17.42-.01.1-.02.2-.03.31l1.08,28.67c.12,3.16-2.34,5.81-5.5,5.93-.28.01-.56,0-.84-.03h0Z" style="fill: #78ff63;"/>
    <path id="Path_119-251" data-name="Path 119-251" d="m217.68,461.52c4.45-3.92,4.89-10.71.97-15.16-.42-.47-.88-.91-1.37-1.31l-7.07-92.84-20.79,4.68,12.2,90.41c-3.4,4.9-2.19,11.63,2.71,15.03,4.1,2.85,9.63,2.51,13.35-.81h0Z" style="fill: #a0616a;"/>
    <path id="Path_120-252" data-name="Path 120-252" d="m181.44,368.15c-1.22-1.13-1.88-2.74-1.82-4.4l1.08-28.67c-.98-8.71,5.28-16.58,14-17.56,8.71-.98,16.58,5.28,17.56,14l7.31,27.85c.8,3.05-1.02,6.18-4.08,6.98-.27.07-.55.12-.83.15l-28.7,3.16c-1.65.18-3.3-.37-4.52-1.5h0Z" style="fill: #78ff63;"/>
    <path id="Path_121-253" data-name="Path 121-253" d="m165.45,296.74c-.44,0-.87-.05-1.3-.15l-.12-.03c-21.59-3.3-26.37-15.81-27.41-21.04-1.08-5.41.15-10.63,2.94-12.66-1.52-4.8-1.28-9.06.73-12.66,3.5-6.28,11.08-8.4,12.1-8.66,6.06-4.47,13.31-1.49,14.62-.88,11.72-4.33,16.2-.73,17.01.08,5.24.94,8.43,2.96,9.49,6.02,1.99,5.73-4.3,12.86-4.57,13.16l-.14.16-9.38.45c-3.51.17-6.22,3.15-6.05,6.65.01.22.03.44.07.66h0c.25,1.14.57,2.26.96,3.36,1.6,5.01,2.8,9.28,1.25,10.91-.72.64-1.74.82-2.62.45-1.47-.39-2.46-.31-2.96.24-.77.86-.54,3.04.66,6.12.77,1.99.36,4.24-1.05,5.85-1.05,1.24-2.6,1.96-4.23,1.97h0Z" style="fill: #2f2e41;"/>
  </g>
</svg>