<?xml version="1.0" encoding="UTF-8"?>
<svg id="Layer_1" data-name="Layer 1" xmlns="http://www.w3.org/2000/svg" viewBox="0 0 674.8182373047 590.5986938477">
  <path d="m32.5614929199,201.2579345703L.0234375,182.9312133789c-.4389038086-19.6077270508,3.9151916504-39.0262145996,12.684173584-56.5693054199,7.5018005371,34.0489196777,46.9812316895,50.2483215332,65.1965026855,79.9772338867,11.3641967773,18.8703918457,13.5294799805,41.884979248,5.8842773438,62.5438232422l2.1400146484,26.3992614746c-34.0335998535-10.1937255859-61.8970031738-34.7788085938-76.2493591309-67.2781677246-3.889251709-9.0483093262-6.6235656738-18.5503540039-8.1384277344-28.2819213867,15.1706237793,1.6144104004,31.0208740234,1.5357971191,31.0208740234,1.5357971191Z" style="fill: #f2f2f2;"/>
  <path d="m617.4869995117,534.670135498l.9977416992-22.4341430664c10.4010620117-5.5596313477,22.0020141602-8.4963378906,33.7955932617-8.5549926758-16.2314453125,13.2704467773-14.2030029297,38.8512573242-25.2075805664,56.6967773438-7.0388793945,11.2212524414-18.7990722656,18.6322631836-31.9592285156,20.1398925781l-13.5830688477,8.3164672852c-3.7719726562-21.0281982422,1.8529663086-42.6535644531,15.3928833008-59.1787719727,3.7987060547-4.5436401367,8.1544189453-8.5908203125,12.9644165039-12.046081543,3.2531738281,8.5779418945,7.5992431641,17.0608520508,7.5992431641,17.0608520508Z" style="fill: #f2f2f2;"/>
  <polygon points="582.4890136719 577.2890014648 570.1890258789 577.2880249023 564.3380126953 529.8480224609 582.491027832 529.8489990234 582.4890136719 577.2890014648" style="fill: #ffb6b6;"/>
  <path d="m585.6253051758,589.211151123l-39.6580200195-.0014648438v-.5015869141c.0006103516-8.5247802734,6.9111938477-15.4353027344,15.4359741211-15.4357910156h.0009765625l7.2440795898-5.4957275391,13.5158081055,5.4965820312,3.4619140625.0001220703-.0007324219,15.9378662109Z" style="fill: #2f2e41;"/>
  <polygon points="525.3480224609 577.2890014648 513.0490112305 577.2880249023 507.1979980469 529.8480224609 525.3510131836 529.8489990234 525.3480224609 577.2890014648" style="fill: #ffb6b6;"/>
  <path d="m528.4850463867,589.211151123l-39.6580200195-.0014648438v-.5015869141c.0006103516-8.5247802734,6.9111938477-15.4353027344,15.4359741211-15.4357910156h.0009765625l7.2440795898-5.4957275391,13.5158081055,5.4965820312,3.4619140625.0001220703-.0007324219,15.9378662109Z" style="fill: #2f2e41;"/>
  <path d="m520.024597168,317.9302062988l80,2c15.1937255859,8.2524719238,15.4244384766,26.1137695312,10.4461669922,47.3202514648,0,0,1.6806030273,12.6044311523-1.6806030273,15.965637207s-5.041809082,3.3612060547-3.3612060547,9.2432861328-7.1987915039,15.4892578125-6.120300293,16.5677490234,3.5993652344,6.9605712891,3.5993652344,6.9605712891l-8.4030151367,47.8969726562s-5.8820800781,83.1895141602-7.5626831055,84.8701171875-3.3612060547,0-1.6806030273,4.2014770508,3.3612060547,2.5208740234,1.6806030273,4.2014770508c-1.4887084961,1.6051025391-2.8911743164,3.2880859375-4.2014770508,5.041809082h-20.3159790039s-1.5317382812-8.4030151367-1.5317382812-9.2432861328-1.6806030273-5.8820800781-1.6806030273-6.7223510742,1.4854125977-2.3256835938,1.4854125977-2.3256835938c.5133056641-1.708190918.8600463867-3.4620361328,1.0354614258-5.2369995117,0-1.6806030273,5.041809082-66.3835449219,5.041809082-66.3835449219l-10.0835571289-84.0297851562-24.3686523438,82.3492431641s0,72.265625-1.6806030273,73.9462280273-1.6806030273.8402709961-.8402709961,4.2014770508,4.2014770508,2.5208740234,1.6806030273,5.041809082-3.3612060547-1.6806030273-2.5208740234,2.5208740234l.8402709961,4.2014770508-25.208984375.3605957031s-3.3612060547-7.0830078125-1.6806030273-9.6038818359,1.5797729492-1.8327636719-.4705810547-5.958190918-2.890625-4.9656982422-2.0503540039-5.8060302734.8402709961-5.309753418.8402709961-5.309753418l4.2014770508-80.4006347656s.8402709961-84.8701171875.8402709961-87.3909912109c.0633544922-1.2971801758-.1755981445-2.5912475586-.6979980469-3.7802734375v-3.4217529297l3.2189331055-12.124786377,11.2300415039-29.1531066895Z" style="fill: #2f2e41;"/>
  <circle cx="568.0817260742" cy="126.726348877" r="24.8564453125" style="fill: #ffb6b6;"/>
  <path d="m555.653503418,168.0111999512c-5.3549804688,3.1835632324-8.5583496094,9.0329284668-10.3972167969,14.985168457-3.4044189453,11.0198669434-5.4536743164,22.4134216309-6.1024169922,33.9289245605l-1.9422607422,34.4753112793-24.0546264648,73.4076538086c20.8473510742,17.6400146484,99.2094116211,4.0090637207,99.2094116211,4.0090637207,0,0,2.405456543-.8017883301,0-3.2072753906s-4.7471923828-.2743530273-2.3417358398-2.6798400879.7471923828.2743530273-.0546264648-2.1311340332,0-.8017883301.8018188477-1.6036376953-6.2072753906-8.0182495117-6.2072753906-8.0182495117l6.4145507812-42.1366577148,8.0181884766-84.9930114746c-9.621887207-12.0273132324-28.97265625-19.1173400879-28.97265625-19.1173400879l-5-9-25,2-4.3711547852,10.0810241699Z" style="fill: #e6e6e6;"/>
  <path d="m552.2443237305,112.1387023926c.9617919922.0075073242,1.9189453125.1331176758,2.8500976562.3739929199,1.8356933594.4412841797,3.6998901367.75390625,5.5791015625.935546875,11.8414916992,1.114074707,21.3948974609,10.163848877,23.1479492188,21.927734375,1.4443359375-1.2592773438,4.7310180664-3.5756835938,7.4248046875-1.4228515625h0c.041015625.0341796875.0649414062.0517578125.1596679688.0068359375,1.7890625-.8486328125,4.96484375-11.294921875,5.0609741211-20.4926757812.05078125-4.8818359375-.7177734375-11.1157226562-4.666015625-13.08984375l-.2080078125-.1040039062-.0546875-.2260742188c-.263671875-1.0981445312-3.2109375-2.97265625-8.3330078125-4.431640625-9.30859375-2.6513671875-23.1842041016-7.8162841797-30.9976806641-.2152099609-.5913085938,2.5625-2.5150146484,8.0462646484-4.4583740234,8.6678466797-2.1518554688.6879882812-4.0102539062,1.2817382812-4.3032226562,3.9213867188-.2446899414,3.756439209-.2268676758,7.5253601074.0532226562,11.279296875.7291870117-2.297088623,2.1604003906-4.3076171875,4.0922851562-5.7485351562,1.3735351562-.9247436523,2.997253418-1.4069213867,4.6528930664-1.3818054199Z" style="fill: #2f2e41;"/>
  <path d="m505.9792480469,249.4814453125l40.6031494141-26.0033874512-20.4505004883-27.1852722168-20.1936035156,24.8399963379-62.9188232422,3.8589172363c-4.7098388672-4.655670166-12.3020629883-4.6118164062-16.9577636719.0980224609-4.6556396484,4.7098083496-4.6117553711,12.3020324707.0980224609,16.9577331543,4.4210205078,4.3701782227,11.4487304688,4.6371459961,16.1885375977.6148986816l63.6309814453,6.8190917969Z" style="fill: #ffb6b6;"/>
  <path d="m584.2676391602,187.1824951172c2.3565673828,14.2616577148-42.1455688477,41.4953613281-42.1455688477,41.4953613281-.0006713867-3.347442627-26.5618286133,21.9234924316-27.7607421875,19.1472473145-3.407409668-7.8902893066-5.8031005859-26.5788269043-10.564453125-29.570098877-2.7229614258-1.7106628418,16.399230957-17.7807922363,16.399230957-17.7807922363,0,0,10.0095214844-10.0838317871,23.1449584961-22.8030700684,7.4124145508-7.4488830566,18.1246948242-10.5801086426,28.3820800781-8.2961730957,0,0,10.1878662109,3.5458984375,12.5444946289,17.8075256348Z" style="fill: #e6e6e6;"/>
  <path d="m667.9572143555,256.3069763184l-26.8572998047-40.0434570312-26.7461547852,21.0215454102,25.2620849609,19.6630859375,5.1903076172,62.8229980469c-4.5548706055,4.8073425293-4.3502197266,12.3969421387.4570922852,16.9518432617,4.8073730469,4.5548706055,12.3969726562,4.3502197266,16.9518432617-.4571228027,4.2755737305-4.5125427246,4.3936157227-11.5443115234.2719726562-16.197845459l5.4701538086-63.7610473633Z" style="fill: #ffb6b6;"/>
  <path d="m604.0145263672,179.3553466797c14.2085571289-2.657989502,42.3784790039,41.2575073242,42.3784790039,41.2575073242-3.3466796875.0715637207,22.4810180664,26.0916442871,19.7307739258,27.3490905762-7.81640625,3.5737304688-26.450012207,6.3646240234-29.3397827148,11.1882324219-1.6526489258,2.7585449219-18.1240234375-16.0191040039-18.1240234375-16.0191040039,0,0-10.2935180664-9.793762207-23.2880249023-22.6568908691-7.6041259766-7.2530212402-10.9614868164-17.8966064453-8.8952636719-28.200012207,0,0,3.329284668-10.2608337402,17.5378417969-12.9188232422Z" style="fill: #e6e6e6;"/>
  <path d="m674.8182373047,589.4086608887c.001953125.6552734375-.5276489258,1.1880493164-1.1829223633,1.1900024414h-280.2971191406c-.6572265625,0-1.1900024414-.5327758789-1.1900024414-1.1900024414s.5327758789-1.1900024414,1.1900024414-1.1900024414h280.2900390625c.6552734375-.001953125,1.1880493164.5277099609,1.1900024414,1.1829833984v.007019043Z" style="fill: #ccc;"/>
  <path d="m415.1618041992,228.7921142578H74.9917602539c-11.0657958984.0124816895-20.0333251953,8.9799804688-20.0458068848,20.0457763672v211.7881774902c.0126037598,11.0657958984,8.9800415039,20.033203125,20.0458068848,20.0457763672h340.1697998047c11.0659179688-.0123291016,20.0335693359-8.9798583984,20.046081543-20.0457763672v-211.7881774902c-.0123901367-11.0658569336-8.9799804688-20.033416748-20.0458374023-20.0457763672Z" style="fill: #87ff63;"/>
  <path d="m415.1618041992,228.7921142578H74.9917602539c-11.0657958984.0124816895-20.0333251953,8.9799804688-20.0458068848,20.0457763672v211.7881774902c.0126037598,11.0657958984,8.9800415039,20.033203125,20.0458068848,20.0457763672h340.1697998047c11.0659179688-.0123291016,20.0335693359-8.9798583984,20.046081543-20.0457763672v-211.7881774902c-.0123901367-11.0658569336-8.9799804688-20.033416748-20.0458374023-20.0457763672Zm6.5784301758,152.1300964355c-.1691894531,44.8496704102-36.1748046875,81.3287353516-81.0184326172,82.0837402344-34.516418457.4492797852,19.0975952148.6245117188-22.5317382812.6245117188-95.1926879883,0-194.4522705078-.9096069336-231.4871826172-1.4994506836-10.1335144043-.2090454102-18.2503967285-8.4630737305-18.2895507812-18.5986938477v-194.6787109375c.0039978027-3.633392334,2.9436950684-6.5803527832,6.5770568848-6.5933227539h340.1576843262c3.6325683594.0042114258,6.5788574219,2.9431152344,6.5922241211,6.5756835938l-.0000610352,132.0862426758Z" style="fill: #3f3d56;"/>
  <path d="m373.2874145508,106.8377990723H114.1135864258c-4.6982421875.0067138672-8.8871459961,2.9606018066-10.4710083008,7.3838195801l-40.0276184082,112.2998046875c-2.0611877441,5.7832336426.9561462402,12.142364502,6.7393798828,14.2035522461,1.1928710938.4251403809,2.4496154785.6433410645,3.716003418.6451721191l347.5946350098.6168823242h.0155029297c6.139465332-.0002746582,11.1162719727-4.9775390625,11.1159667969-11.1170043945-.0000610352-1.5051879883-.3057861328-2.9946899414-.8986816406-4.3782043457l-.6060791016.2594604492.6060791016-.2594604492-48.3930053711-112.9166870117c-1.748840332-4.0895996094-5.76953125-6.740814209-10.2173461914-6.7373352051Z" style="fill: #3f3d56;"/>
  <path d="m432.797668457,228.9305114746c-.0010375977,1.5057983398-.3072509766,2.9957885742-.9000244141,4.3800048828l-48.3900146484,86.9199829102c-1.7607421875,4.0798034668-5.7764282227,6.7241821289-10.2199707031,6.7300109863H114.1176452637c-4.6998596191-.0046081543-8.8918457031-2.9566040039-10.4800109863-7.3800048828l-40.0199890137-86.3000183105c-2.0617980957-5.778717041.9513549805-12.1347045898,6.7300720215-14.196472168.0032958984-.0011901855.0066223145-.0023498535.0099182129-.0035400391,1.1897583008-.4295654297,2.4450378418-.6495056152,3.7099914551-.6499938965l42.4599914551-.0799560547,17.3299865723-.0299987793,228.0399780273-.3999938965,17.3400268555-.0299987793,42.4299926758-.0799865723h.0100097656c6.1409912109.0010070801,11.1190185547,4.9789733887,11.1200561523,11.1199645996Z" style="fill: #3f3d56;"/>
  <path d="m100.4935913086,387.6576843262c5.1393432617,0,75.7139892578,4.3131713867,75.7139892578,9.4525146484s-70.5747070312,9.1586914062-75.7139892578,9.1586914062c-5.1393432617,0-9.3056030273-4.1662597656-9.3056030273-9.3056030273s4.1662597656-9.3056030273,9.3056030273-9.3056030273Z" style="fill: #3f3d56;"/>
  <path d="m357.147644043,38.5205383301h-218.5299987793c-12.1941223145.0140991211-22.0758972168,9.8958740234-22.0899963379,22.0899963379v266.3500061035h256.7600097656c2.1083374023.0066833496,4.1739501953-.5939331055,5.950012207-1.7300109863V60.610534668c-.0140991211-12.1941223145-9.8958740234-22.0758972168-22.0900268555-22.0899963379Z" style="fill: #e6e6e6;"/>
  <path d="m273.7376708984,56.4305114746h-119.7600097656c-11.1036071777.0108184814-20.1036682129,9.0064544678-20.1199951172,20.1100463867v250.4199829102h228.0399780273v-182.3699951172c-.0561523438-48.6661529541-39.4938354492-88.1038818359-88.1599731445-88.1600341797Z" style="fill: #fff;"/>
  <path d="m323.047668457,304.7205505371h-150.3399963379c-2.7061767578-.0042724609-4.9034729004,2.1860656738-4.9077453613,4.8922424316-.0042724609,2.7062072754,2.1860656738,4.9034729004,4.8922424316,4.9077453613h150.3554992676c2.7061767578.0042724609,4.9034423828-2.1860656738,4.9077148438-4.8922424316.0043334961-2.7062072754-2.1860351562-4.9034729004-4.8922119141-4.9077453613h-.0155029297Z" style="fill: #e4e4e4;"/>
  <path d="m323.047668457,285.3405456543h-150.3399963379c-2.7089538574.0020446777-4.9033508301,2.1997375488-4.9013061523,4.9086914062.0020446777,2.7060852051,2.1952514648,4.8992614746,4.9013061523,4.9013061523h150.3399963379c2.708984375.0020446777,4.9066772461-2.1923522949,4.9086914062-4.9013061523.0020751953-2.7089538574-2.1923217773-4.9066467285-4.9013061523-4.9086914062h-.0073852539Z" style="fill: #e4e4e4;"/>
  <path d="m237.8775939941,265.9705505371h-65.1700134277c-2.7061767578-.0042724609-4.9034729004,2.1860656738-4.9077453613,4.8922424316-.0042724609,2.7062072754,2.1860656738,4.9034729004,4.8922424316,4.9077453613h65.1854858398c2.7061767578.0042724609,4.9034729004-2.1860656738,4.9077453613-4.8922424316.0042724609-2.7062072754-2.1860656738-4.9034729004-4.8922424316-4.9077453613h-.0155029297.0000305176Z" style="fill: #e4e4e4;"/>
  <path d="m323.047668457,225.3905334473h-150.3399963379c-2.7089538574.0020446777-4.9033508301,2.1997375488-4.9013061523,4.9086914062.0020446777,2.7060852051,2.1952514648,4.8992614746,4.9013061523,4.9013061523h150.3399963379c2.708984375.0020446777,4.9066772461-2.1923522949,4.9086914062-4.9013061523.0020751953-2.7089538574-2.1923217773-4.9066467285-4.9013061523-4.9086914062h-.0073852539Z" style="fill: #e4e4e4;"/>
  <path d="m323.047668457,206.0205383301h-150.3399963379c-2.7061767578-.0042724609-4.9034729004,2.1860656738-4.9077453613,4.8922424316-.0042724609,2.7062072754,2.1860656738,4.9034729004,4.8922424316,4.9077453613h150.3554992676c2.7061767578.0042724609,4.9034423828-2.1860656738,4.9077148438-4.8922424316.0043334961-2.7062072754-2.1860351562-4.9034729004-4.8922119141-4.9077453613h-.0155029297Z" style="fill: #e4e4e4;"/>
  <path d="m237.8775939941,186.6405334473h-65.1700134277c-2.7089538574.0020446777-4.9033508301,2.1997375488-4.9013061523,4.9086914062.0020446777,2.7060852051,2.1952514648,4.8992614746,4.9013061523,4.9013061523h65.1699829102c2.7089538574.0020446777,4.9066467285-2.1923522949,4.9086914062-4.9013061523s-2.1923217773-4.9066467285-4.9012756348-4.9086914062h-.0074157715.0000305176Z" style="fill: #e4e4e4;"/>
  <path d="m323.047668457,146.0605163574h-150.3399963379c-2.7089538574.0020446777-4.9033508301,2.1997375488-4.9013061523,4.9086914062.0020446777,2.7060852051,2.1952514648,4.8992614746,4.9013061523,4.9013061523h150.3399963379c2.708984375.0020446777,4.9066772461-2.1923522949,4.9086914062-4.9013061523.0020751953-2.7089538574-2.1923217773-4.9066467285-4.9013061523-4.9086914062h-.0073852539Z" style="fill: #87ff63;"/>
  <path d="m323.047668457,126.6905212402h-150.3399963379c-2.7089538574.0020446777-4.9033508301,2.1997375488-4.9013061523,4.9086914062.0020446777,2.7060852051,2.1952514648,4.8992614746,4.9013061523,4.9013061523h150.3399963379c2.708984375.0020446777,4.9066772461-2.1923522949,4.9086914062-4.9013061523.0020751953-2.7089538574-2.1923217773-4.9066467285-4.9013061523-4.9086914062h-.0073852539Z" style="fill: #87ff63;"/>
  <path d="m237.8775939941,107.3105163574h-65.1700134277c-2.7089538574.0020446777-4.9033508301,2.1997375488-4.9013061523,4.9086914062.0020446777,2.7060852051,2.1952514648,4.8992614746,4.9013061523,4.9013061523h65.1699829102c2.7089538574.0020446777,4.9066467285-2.1923522949,4.9086914062-4.9013061523s-2.1923217773-4.9066467285-4.9012756348-4.9086914062h-.0074157715.0000305176Z" style="fill: #87ff63;"/>
  <circle cx="371.0447998047" cy="38.1628112793" r="38.162815094" style="fill: #87ff63;"/>
  <path d="m365.8386230469,58.0247802734c-1.3361206055,0-2.5942993164-.6292572021-3.395690918-1.6983795166l-10.4113769531-13.8820953369c-1.4129638672-1.870803833-1.041809082-4.5328521729.8289794922-5.9458312988s4.5328369141-1.0418243408,5.9458007812.8289794922c.0057983398.0076751709.0115966797.0153656006.0173339844.0230865479l6.8115234375,9.0812988281,17.4944458008-26.241317749c1.3005371094-1.9507751465,3.9362182617-2.4779205322,5.8869628906-1.1773986816,1.9508056641,1.3005218506,2.4779663086,3.9362182617,1.1774291992,5.8869934082l-20.8229370117,31.2342376709c-.7643432617,1.1462402344-2.0372314453,1.850479126-3.4143676758,1.8890838623-.0393676758.0006561279-.0787353516.0013427734-.1181030273.0013427734Z" style="fill: #fff;"/>
</svg>